<svg width="48" height="48" viewBox="0 0 48 48" fill="none" xmlns="http://www.w3.org/2000/svg">
<rect width="48" height="48" rx="24" fill="black"/>
<path d="M27.9418 17.986C28.1371 17.986 28.47 18.017 28.9405 18.0792C29.411 18.1413 29.926 18.3189 30.4853 18.6119C31.0534 18.896 31.5684 19.3709 32.03 20.0368C32.0034 20.0634 31.8746 20.161 31.6438 20.3297C31.413 20.4895 31.1555 20.7292 30.8714 21.0488C30.5874 21.3596 30.3388 21.7591 30.1257 22.2473C29.9126 22.7267 29.8061 23.2994 29.8061 23.9652C29.8061 24.7287 29.9393 25.3768 30.2056 25.9094C30.4808 26.4421 30.796 26.8727 31.1511 27.2012C31.5151 27.5208 31.8347 27.756 32.1099 27.907C32.394 28.0579 32.5449 28.1378 32.5627 28.1467C32.5538 28.1822 32.4384 28.4973 32.2164 29.0922C32.0034 29.687 31.6483 30.3484 31.1511 31.0763C30.7161 31.7067 30.2456 32.2882 29.7395 32.8208C29.2424 33.3535 28.6431 33.6199 27.9418 33.6199C27.4712 33.6199 27.085 33.5533 26.7832 33.4201C26.4814 33.2781 26.1706 33.1404 25.851 33.0073C25.5314 32.8652 25.1009 32.7942 24.5593 32.7942C24.0355 32.7942 23.5961 32.8652 23.2409 33.0073C22.8947 33.1493 22.5618 33.2914 22.2422 33.4334C21.9315 33.5755 21.563 33.6465 21.1369 33.6465C20.4888 33.6465 19.9206 33.389 19.4324 32.8741C18.9441 32.3592 18.4425 31.7422 17.9276 31.0231C17.3327 30.1708 16.8223 29.1321 16.3961 27.907C15.9789 26.6729 15.7702 25.43 15.7702 24.1783C15.7702 22.8377 16.0233 21.7147 16.5293 20.8091C17.0353 19.8947 17.6834 19.2067 18.4735 18.745C19.2725 18.2745 20.0982 18.0392 20.9505 18.0392C21.4032 18.0392 21.8294 18.1147 22.2289 18.2656C22.6284 18.4077 23.0012 18.5542 23.3475 18.7051C23.7026 18.856 24.0222 18.9315 24.3063 18.9315C24.5815 18.9315 24.9011 18.8516 25.2651 18.6918C25.6291 18.532 26.0375 18.3766 26.4902 18.2257C26.943 18.0659 27.4268 17.986 27.9418 17.986ZM27.2093 16.2947C26.8631 16.712 26.4281 17.0627 25.9043 17.3468C25.3805 17.622 24.8833 17.7596 24.4128 17.7596C24.3152 17.7596 24.2219 17.7507 24.1332 17.733C24.1243 17.7063 24.1154 17.6575 24.1065 17.5865C24.0977 17.5154 24.0932 17.44 24.0932 17.3601C24.0932 16.8274 24.2086 16.3125 24.4395 15.8153C24.6703 15.3093 24.9322 14.892 25.2251 14.5636C25.598 14.1197 26.0685 13.7512 26.6367 13.4583C27.2049 13.1653 27.7464 13.0099 28.2614 12.9922C28.288 13.1076 28.3013 13.2452 28.3013 13.405C28.3013 13.9377 28.1992 14.457 27.995 14.9631C27.7908 15.4602 27.5289 15.9041 27.2093 16.2947Z" fill="white"/>
</svg>
