<svg width="48" height="48" viewBox="0 0 48 48" fill="none" xmlns="http://www.w3.org/2000/svg">
<rect x="0.5" y="0.5" width="47" height="47" rx="23.5" fill="white"/>
<rect x="0.5" y="0.5" width="47" height="47" rx="23.5" stroke="#747775"/>
<mask id="mask0_436_15161" style="mask-type:luminance" maskUnits="userSpaceOnUse" x="14" y="14" width="20" height="20">
<path d="M34 14H14V34H34V14Z" fill="white"/>
</mask>
<g mask="url(#mask0_436_15161)">
<path d="M33.6 24.2271C33.6 23.518 33.5364 22.8362 33.4182 22.1816H24V26.0498H29.3818C29.15 27.2998 28.4455 28.3589 27.3864 29.068V31.5771H30.6182C32.5091 29.8362 33.6 27.2725 33.6 24.2271Z" fill="#4285F4"/>
<path d="M23.9999 33.9994C26.6999 33.9994 28.9635 33.1039 30.6181 31.5767L27.3863 29.0676C26.4908 29.6676 25.3453 30.0221 23.9999 30.0221C21.3953 30.0221 19.1908 28.263 18.4044 25.8994H15.0635V28.4903C16.709 31.7585 20.0908 33.9994 23.9999 33.9994Z" fill="#34A853"/>
<path d="M18.4045 25.8997C18.2045 25.2997 18.0909 24.6588 18.0909 23.9997C18.0909 23.3406 18.2045 22.6997 18.4045 22.0997V19.5088H15.0636C14.3864 20.8588 14 22.3861 14 23.9997C14 25.6133 14.3864 27.1406 15.0636 28.4906L18.4045 25.8997Z" fill="#FBBC04"/>
<path d="M23.9999 17.9773C25.4681 17.9773 26.7862 18.4818 27.8226 19.4727L30.6908 16.6045C28.959 14.9909 26.6953 14 23.9999 14C20.0908 14 16.709 16.2409 15.0635 19.5091L18.4044 22.1C19.1908 19.7364 21.3953 17.9773 23.9999 17.9773Z" fill="#E94235"/>
</g>
</svg>
