<svg width="375" height="232" viewBox="0 0 375 232" fill="none" xmlns="http://www.w3.org/2000/svg">
<g clip-path="url(#clip0_1123_13904)">
<g clip-path="url(#clip1_1123_13904)">
<g opacity="0.5">
<mask id="mask0_1123_13904" style="mask-type:luminance" maskUnits="userSpaceOnUse" x="0" y="-509" width="375" height="812">
<path d="M375 -509H0V303H375V-509Z" fill="white"/>
</mask>
<g mask="url(#mask0_1123_13904)">
<path d="M399.7 1.28003C434.417 1.28021 462.56 29.4239 462.56 64.1404C462.559 95.9351 438.954 122.215 408.312 126.414C416.417 138.621 421.14 153.269 421.14 169.02C421.14 180.6 418.586 191.582 414.015 201.438C430.78 215.587 441.43 236.755 441.43 260.41C441.43 300.463 410.9 333.383 371.842 337.174C359.974 394.014 309.584 436.71 249.22 436.71C180.035 436.709 123.95 380.625 123.95 311.44C123.95 296.94 126.415 283.015 130.946 270.061C130.422 270.072 129.897 270.08 129.37 270.08C92.0678 270.08 61.0638 242.533 54.7891 206.267C40.4202 202.684 29.1352 191.066 25.7588 176.336C17.8109 179.104 9.27128 180.61 0.379883 180.61C-42.2177 180.61 -76.7499 146.078 -76.75 103.48C-76.75 60.8825 -42.2178 26.3504 0.379883 26.3503C40.459 26.3503 73.3964 56.9197 77.1514 96.0144C88.2727 100.264 97.0138 109.491 100.777 121.043C109.6 117.366 119.253 115.34 129.37 115.34C171.2 115.34 205.11 149.98 205.11 192.71C205.11 193.195 205.103 193.68 205.095 194.164C218.819 188.998 233.689 186.17 249.22 186.17C256.01 186.17 262.675 186.712 269.172 187.752C267.676 181.755 266.88 175.48 266.88 169.02C266.88 126.665 301.021 92.2838 343.284 91.8943C339.159 83.524 336.84 74.1031 336.84 64.1404C336.84 29.4238 364.984 1.28003 399.7 1.28003Z" fill="white" fill-opacity="0.5"/>
</g>
</g>
<g opacity="0.8">
<mask id="mask1_1123_13904" style="mask-type:luminance" maskUnits="userSpaceOnUse" x="0" y="-509" width="375" height="812">
<path d="M375 -509H0V303H375V-509Z" fill="white"/>
</mask>
<g mask="url(#mask1_1123_13904)">
<path d="M426.19 24.2C468.788 24.2002 503.32 58.7324 503.32 101.33C503.32 133.746 483.322 161.49 454.99 172.901C455.121 174.737 455.19 176.591 455.19 178.46C455.19 198.359 447.653 216.497 435.279 230.179C439.238 239.462 441.43 249.68 441.43 260.41C441.43 303.008 406.898 337.54 364.3 337.54C347.923 337.54 332.738 332.435 320.249 323.73C306.273 351.016 277.872 369.69 245.109 369.69C203.952 369.69 169.678 340.219 162.237 301.229C150.578 307.769 137.13 311.5 122.811 311.5C78.2357 311.5 42.1006 275.365 42.1006 230.79C42.1006 216.189 45.9771 202.494 52.7578 190.678C47.4802 190.65 42.4566 189.553 37.8907 187.593C25.0823 197.061 9.24038 202.66 -7.91013 202.66C-50.5078 202.66 -85.04 168.128 -85.04 125.53C-85.04 82.9324 -50.5078 48.4003 -7.91013 48.4002C32.0297 48.4002 64.8785 78.7575 68.8223 117.657C82.0188 123.683 91.1905 136.995 91.1905 152.45C91.1905 153.855 91.1116 155.242 90.9639 156.607C100.735 152.407 111.501 150.08 122.811 150.08C161.288 150.08 193.475 177.006 201.561 213.044C214.273 205.367 229.176 200.95 245.109 200.95C251.886 200.95 258.477 201.75 264.791 203.259C269.279 188.895 282.688 178.471 298.53 178.471C299.337 178.471 300.137 178.499 300.931 178.553C300.931 178.522 300.931 178.491 300.931 178.46C300.931 146.044 320.928 118.299 349.259 106.888C349.128 105.052 349.061 103.199 349.061 101.33C349.061 58.7322 383.593 24.2 426.19 24.2Z" fill="white" fill-opacity="0.8"/>
</g>
</g>
<mask id="mask2_1123_13904" style="mask-type:luminance" maskUnits="userSpaceOnUse" x="0" y="-490" width="375" height="812">
<path d="M375 -490H0V322H375V-490Z" fill="white"/>
</mask>
<g mask="url(#mask2_1123_13904)">
<path d="M-17.71 98.2695C20.2139 98.2695 51.7453 125.64 58.208 161.704C98.5929 166.967 134.217 187.376 159.196 217.045C174.379 208.12 192.089 203 211 203C233.196 203 253.736 210.056 270.479 222.036C276.82 215.997 285.402 212.29 294.85 212.29C297.245 212.29 299.586 212.529 301.848 212.983C302.472 182.254 321.067 155.937 347.553 144.114C352.792 124.47 370.705 110 392 110C417.405 110 438 130.595 438 156C438 158.767 437.754 161.478 437.286 164.11C449.001 177.637 456.09 195.281 456.09 214.58C456.09 235.853 447.477 255.113 433.55 269.066C436.271 276.953 437.75 285.418 437.75 294.229C437.75 336.827 403.218 371.359 360.62 371.359C338.183 371.359 317.984 361.778 303.89 346.484C287.84 381.591 252.286 406 211 406C198.31 406 186.162 403.693 174.954 399.479C147.378 446.752 96.1255 478.52 37.4502 478.521C-50.4072 478.521 -121.63 407.298 -121.63 319.44C-121.63 279.911 -107.21 243.749 -83.3457 215.927C-90.6328 204.15 -94.8398 190.266 -94.8398 175.399C-94.8398 132.802 -60.3076 98.2696 -17.71 98.2695Z" fill="white"/>
</g>
</g>
</g>
<defs>
<clipPath id="clip0_1123_13904">
<rect width="375" height="232" fill="white"/>
</clipPath>
<clipPath id="clip1_1123_13904">
<rect width="375" height="812" fill="white" transform="translate(0 -490)"/>
</clipPath>
</defs>
</svg>
