<svg width="375" height="812" viewBox="0 0 375 812" fill="none" xmlns="http://www.w3.org/2000/svg">
<g opacity="0.5">
<mask id="mask0_677_11918" style="mask-type:luminance" maskUnits="userSpaceOnUse" x="0" y="-19" width="375" height="812">
<path d="M375 -19H0V793H375V-19Z" fill="white"/>
</mask>
<g mask="url(#mask0_677_11918)">
<path d="M399.7 491.28C434.417 491.28 462.56 519.424 462.56 554.141C462.559 585.935 438.954 612.216 408.312 616.414C416.417 628.622 421.14 643.269 421.14 659.021C421.14 670.6 418.586 681.583 414.015 691.438C430.78 705.587 441.43 726.755 441.43 750.41C441.43 790.463 410.9 823.383 371.842 827.174C359.974 884.014 309.584 926.71 249.22 926.71C180.035 926.71 123.95 870.625 123.95 801.44C123.95 786.94 126.415 773.015 130.946 760.062C130.422 760.072 129.897 760.08 129.37 760.08C92.0678 760.08 61.0638 732.533 54.7891 696.268C40.4202 692.684 29.1352 681.067 25.7588 666.336C17.8109 669.104 9.27128 670.61 0.379883 670.61C-42.2177 670.61 -76.7499 636.078 -76.75 593.48C-76.75 550.883 -42.2178 516.351 0.379883 516.351C40.459 516.351 73.3964 546.92 77.1514 586.015C88.2727 590.264 97.0138 599.491 100.777 611.043C109.6 607.366 119.253 605.34 129.37 605.34C171.2 605.34 205.11 639.98 205.11 682.71C205.11 683.196 205.103 683.681 205.095 684.164C218.819 678.998 233.689 676.17 249.22 676.17C256.01 676.17 262.675 676.712 269.172 677.752C267.676 671.755 266.88 665.481 266.88 659.021C266.88 616.665 301.021 582.284 343.284 581.895C339.159 573.524 336.84 564.103 336.84 554.141C336.84 519.424 364.984 491.28 399.7 491.28Z" fill="white" fill-opacity="0.5"/>
</g>
</g>
<g opacity="0.8">
<mask id="mask1_677_11918" style="mask-type:luminance" maskUnits="userSpaceOnUse" x="0" y="-19" width="375" height="812">
<path d="M375 -19H0V793H375V-19Z" fill="white"/>
</mask>
<g mask="url(#mask1_677_11918)">
<path d="M426.19 514.2C468.788 514.2 503.32 548.733 503.32 591.33C503.32 623.746 483.322 651.49 454.99 662.901C455.121 664.737 455.19 666.591 455.19 668.46C455.19 688.359 447.653 706.498 435.279 720.179C439.238 729.462 441.43 739.68 441.43 750.41C441.43 793.008 406.898 827.54 364.3 827.54C347.922 827.54 332.738 822.435 320.249 813.73C306.273 841.016 277.872 859.69 245.109 859.69C203.952 859.69 169.677 830.22 162.237 791.229C150.578 797.77 137.13 801.5 122.811 801.5C78.2356 801.5 42.1006 765.365 42.1006 720.79C42.1006 706.189 45.9771 692.494 52.7578 680.678C47.4802 680.65 42.4566 679.553 37.8906 677.593C25.0822 687.061 9.24035 692.66 -7.91016 692.66C-50.5078 692.66 -85.04 658.128 -85.04 615.53C-85.04 572.933 -50.5078 538.4 -7.91016 538.4C32.0297 538.4 64.8785 568.758 68.8223 607.657C82.0188 613.683 91.1904 626.995 91.1904 642.45C91.1904 643.855 91.1115 645.242 90.9639 646.607C100.735 642.407 111.501 640.08 122.811 640.08C161.288 640.08 193.475 667.007 201.561 703.044C214.273 695.367 229.176 690.95 245.109 690.95C251.886 690.95 258.477 691.75 264.791 693.259C269.279 678.895 282.688 668.471 298.53 668.471C299.337 668.471 300.137 668.5 300.931 668.553C300.931 668.522 300.931 668.491 300.931 668.46C300.931 636.044 320.928 608.299 349.259 596.888C349.128 595.052 349.061 593.199 349.061 591.33C349.061 548.732 383.593 514.2 426.19 514.2Z" fill="white" fill-opacity="0.8"/>
</g>
</g>
<mask id="mask2_677_11918" style="mask-type:luminance" maskUnits="userSpaceOnUse" x="0" y="0" width="375" height="812">
<path d="M375 0H0V812H375V0Z" fill="white"/>
</mask>
<g mask="url(#mask2_677_11918)">
<path d="M-17.71 588.27C20.2139 588.27 51.7453 615.64 58.208 651.704C98.5929 656.967 134.217 677.376 159.196 707.045C174.379 698.12 192.089 693 211 693C233.196 693 253.736 700.056 270.479 712.036C276.82 705.997 285.402 702.29 294.85 702.29C297.245 702.29 299.586 702.529 301.848 702.983C302.472 672.254 321.067 645.937 347.553 634.114C352.792 614.47 370.705 600 392 600C417.405 600 438 620.595 438 646C438 648.767 437.754 651.478 437.286 654.11C449.001 667.637 456.09 685.281 456.09 704.58C456.09 725.853 447.477 745.113 433.55 759.066C436.271 766.953 437.75 775.418 437.75 784.229C437.75 826.827 403.218 861.359 360.62 861.359C338.183 861.359 317.984 851.778 303.89 836.484C287.84 871.591 252.286 896 211 896C198.31 896 186.162 893.693 174.954 889.479C147.378 936.752 96.1255 968.52 37.4502 968.521C-50.4072 968.521 -121.63 897.298 -121.63 809.44C-121.63 769.911 -107.21 733.749 -83.3457 705.927C-90.6328 694.15 -94.8398 680.266 -94.8398 665.399C-94.8398 622.802 -60.3076 588.27 -17.71 588.27Z" fill="white"/>
</g>
</svg>
