<svg width="219" height="86" viewBox="0 0 219 86" fill="none" xmlns="http://www.w3.org/2000/svg">
<g filter="url(#filter0_d_1966_17495)">
<path d="M105.768 73C106.538 74.3333 108.462 74.3333 109.232 73L119.624 55C120.394 53.6667 119.432 52 117.892 52H97.1077C95.5681 52 94.6058 53.6667 95.3756 55L105.768 73Z" fill="white"/>
<rect width="199" height="56" rx="28" transform="matrix(1 0 0 -1 8 64)" fill="white"/>
<path d="M54.8222 30.126H44.2382C43.8042 30.126 43.6082 29.776 43.6082 29.37C43.6082 28.964 43.8042 28.614 44.2382 28.614H48.6342V26.486C46.4222 26.234 45.1062 25.002 45.1062 23.028C45.1062 20.802 46.7862 19.528 49.5302 19.528C52.2742 19.528 53.9542 20.802 53.9542 23.028C53.9542 25.002 52.6382 26.234 50.4262 26.486V28.614H54.8222C55.2562 28.614 55.4522 28.964 55.4522 29.37C55.4522 29.776 55.2562 30.126 54.8222 30.126ZM52.1622 23.028C52.1622 21.908 51.3922 21.04 49.5302 21.04C47.6682 21.04 46.8982 21.908 46.8982 23.028C46.8982 24.148 47.6682 25.016 49.5302 25.016C51.3922 25.016 52.1622 24.148 52.1622 23.028ZM59.6963 19.92V21.754C59.6963 21.992 59.7803 22.076 60.0183 22.076H66.2623C66.6823 22.076 66.8783 22.412 66.8783 22.804C66.8783 23.21 66.6823 23.546 66.2623 23.546H59.0803C58.1843 23.546 57.8903 23.266 57.8903 22.384V19.92C57.8903 19.402 58.3243 19.164 58.8003 19.164C59.2623 19.164 59.6963 19.402 59.6963 19.92ZM67.5783 25.884H56.9663C56.5463 25.884 56.3503 25.548 56.3503 25.142C56.3503 24.75 56.5463 24.414 56.9663 24.414H67.5783C67.9983 24.414 68.1943 24.75 68.1943 25.142C68.1943 25.548 67.9983 25.884 67.5783 25.884ZM58.3943 26.766H65.4783C66.3743 26.766 66.6683 27.046 66.6683 27.928V28.95C66.6683 29.832 66.3743 30.112 65.4783 30.112H59.7943C59.6543 30.112 59.5843 30.182 59.5843 30.322V30.574C59.5843 30.714 59.6543 30.784 59.7943 30.784H66.3743C66.7663 30.784 66.9483 31.12 66.9483 31.47C66.9483 31.834 66.7663 32.156 66.3743 32.156H59.0383C58.1423 32.156 57.8483 31.876 57.8483 30.994V29.958C57.8483 29.076 58.1423 28.796 59.0383 28.796H64.7223C64.8623 28.796 64.9323 28.726 64.9323 28.586V28.348C64.9323 28.208 64.8623 28.138 64.7223 28.138H58.3943C58.0023 28.138 57.8203 27.816 57.8203 27.452C57.8203 27.102 58.0023 26.766 58.3943 26.766ZM75.8825 21.18H74.0205C73.5865 21.18 73.3905 20.83 73.3905 20.41C73.3905 19.99 73.5865 19.64 74.0205 19.64H76.7785C77.6745 19.64 77.9685 19.92 77.9685 20.802V21.866C77.9685 22.734 77.8285 23.714 77.6185 24.484H80.8805C81.0625 23.658 81.1465 22.776 81.1465 21.978V21.502C81.1465 21.264 81.0625 21.18 80.8245 21.18H79.1725C78.7385 21.18 78.5425 20.83 78.5425 20.41C78.5425 19.99 78.7385 19.64 79.1725 19.64H81.7205C82.6165 19.64 82.9105 19.92 82.9105 20.802V21.866C82.9105 22.734 82.7845 23.714 82.5885 24.484H83.8065C84.2405 24.484 84.4365 24.834 84.4365 25.24C84.4365 25.646 84.2405 25.996 83.8065 25.996H79.5925V28.334C79.5925 28.81 79.2005 29.02 78.6965 29.02C78.2065 29.02 77.8145 28.81 77.8145 28.334V25.996H73.2225C72.7885 25.996 72.5925 25.646 72.5925 25.24C72.5925 24.834 72.7885 24.484 73.2225 24.484H75.8965C76.1065 23.658 76.2045 22.776 76.2045 21.978V21.502C76.2045 21.264 76.1205 21.18 75.8825 21.18ZM75.9105 28.334V30.098C75.9105 30.336 75.9945 30.42 76.2325 30.42H82.5185C82.9525 30.42 83.1485 30.77 83.1485 31.19C83.1485 31.596 82.9525 31.946 82.5185 31.946H75.2945C74.3985 31.946 74.1045 31.666 74.1045 30.784V28.334C74.1045 27.816 74.5385 27.578 75.0145 27.578C75.4765 27.578 75.9105 27.816 75.9105 28.334ZM92.1247 21.11H90.2627C89.8287 21.11 89.6327 20.76 89.6327 20.354C89.6327 19.934 89.8287 19.584 90.2627 19.584H93.0207C93.9167 19.584 94.2107 19.864 94.2107 20.746V21.614C94.2107 22.426 94.0567 23.322 93.8747 24.036H97.1367C97.3047 23.266 97.3887 22.496 97.3887 21.726V21.432C97.3887 21.194 97.3047 21.11 97.0667 21.11H95.4147C94.9807 21.11 94.7847 20.76 94.7847 20.354C94.7847 19.934 94.9807 19.584 95.4147 19.584H97.9627C98.8587 19.584 99.1527 19.864 99.1527 20.746V21.614C99.1527 22.426 99.0127 23.322 98.8447 24.036H100.049C100.483 24.036 100.679 24.386 100.679 24.792C100.679 25.184 100.483 25.534 100.049 25.534H95.6387V27.242H97.9767C98.8727 27.242 99.1667 27.522 99.1667 28.404V30.882C99.1667 31.764 98.8727 32.044 97.9767 32.044H91.5367C90.6407 32.044 90.3467 31.764 90.3467 30.882V28.404C90.3467 27.522 90.6407 27.242 91.5367 27.242H93.8747V25.534H89.4647C89.0307 25.534 88.8347 25.184 88.8347 24.792C88.8347 24.386 89.0307 24.036 89.4647 24.036H92.1527C92.3347 23.266 92.4467 22.496 92.4467 21.726V21.432C92.4467 21.194 92.3627 21.11 92.1247 21.11ZM92.4467 30.588H97.0667C97.3047 30.588 97.3887 30.504 97.3887 30.266V29.02C97.3887 28.782 97.3047 28.698 97.0667 28.698H92.4467C92.2087 28.698 92.1247 28.782 92.1247 29.02V30.266C92.1247 30.504 92.2087 30.588 92.4467 30.588ZM103.117 21.488C103.117 19.85 104.769 19.164 107.499 19.164C110.229 19.164 111.881 19.85 111.881 21.488C111.881 23.126 110.229 23.812 107.499 23.812C104.769 23.812 103.117 23.126 103.117 21.488ZM110.103 21.488C110.103 20.914 109.361 20.564 107.499 20.564C105.637 20.564 104.895 20.914 104.895 21.488C104.895 22.062 105.637 22.412 107.499 22.412C109.361 22.412 110.103 22.062 110.103 21.488ZM112.805 25.926H102.193C101.773 25.926 101.577 25.604 101.577 25.184C101.577 24.792 101.773 24.47 102.193 24.47H112.805C113.225 24.47 113.421 24.792 113.421 25.184C113.421 25.604 113.225 25.926 112.805 25.926ZM103.621 26.766H110.705C111.601 26.766 111.895 27.046 111.895 27.928V28.95C111.895 29.832 111.601 30.112 110.705 30.112H105.021C104.881 30.112 104.811 30.182 104.811 30.322V30.574C104.811 30.714 104.881 30.784 105.021 30.784H111.601C111.993 30.784 112.175 31.12 112.175 31.47C112.175 31.834 111.993 32.156 111.601 32.156H104.265C103.369 32.156 103.075 31.876 103.075 30.994V29.958C103.075 29.076 103.369 28.796 104.265 28.796H109.949C110.089 28.796 110.159 28.726 110.159 28.586V28.348C110.159 28.208 110.089 28.138 109.949 28.138H103.621C103.229 28.138 103.047 27.816 103.047 27.452C103.047 27.102 103.229 26.766 103.621 26.766ZM118.239 22.636C118.239 20.83 119.373 19.528 121.599 19.528C123.825 19.528 124.959 20.83 124.959 22.636C124.959 24.442 123.825 25.744 121.599 25.744C119.373 25.744 118.239 24.442 118.239 22.636ZM123.251 22.636C123.251 21.74 122.803 20.998 121.599 20.998C120.395 20.998 119.947 21.74 119.947 22.636C119.947 23.532 120.395 24.274 121.599 24.274C122.803 24.274 123.251 23.532 123.251 22.636ZM128.543 19.794V25.296C128.543 25.814 128.109 26.052 127.647 26.052C127.185 26.052 126.751 25.814 126.751 25.296V19.794C126.751 19.276 127.185 19.038 127.647 19.038C128.109 19.038 128.543 19.276 128.543 19.794ZM128.543 27.298V30.854C128.543 31.736 128.249 32.016 127.353 32.016H121.305C120.409 32.016 120.115 31.736 120.115 30.854V27.298C120.115 26.808 120.549 26.57 120.983 26.57C121.431 26.57 121.865 26.808 121.865 27.298V28.222H126.793V27.298C126.793 26.808 127.227 26.57 127.661 26.57C128.109 26.57 128.543 26.808 128.543 27.298ZM122.187 30.574H126.471C126.709 30.574 126.793 30.49 126.793 30.252V29.636H121.865V30.252C121.865 30.49 121.949 30.574 122.187 30.574ZM134.803 21.152H131.793C131.373 21.152 131.191 20.802 131.191 20.41C131.191 20.018 131.373 19.668 131.793 19.668H135.685C136.581 19.668 136.875 19.948 136.875 20.83V22.692C136.875 23.574 136.581 23.854 135.685 23.854H133.277C133.039 23.854 132.955 23.938 132.955 24.176V24.848C132.955 25.086 133.039 25.17 133.277 25.17C134.677 25.17 136.287 25.114 137.491 24.988C137.925 24.946 138.163 25.24 138.205 25.618C138.247 26.024 138.093 26.416 137.687 26.458C136.553 26.584 134.957 26.654 132.395 26.654C131.499 26.654 131.205 26.374 131.205 25.492V23.616C131.205 22.734 131.499 22.454 132.395 22.454H134.803C135.041 22.454 135.125 22.37 135.125 22.132V21.474C135.125 21.236 135.041 21.152 134.803 21.152ZM141.369 19.794V26.36C141.369 26.878 140.935 27.116 140.487 27.116C140.039 27.116 139.605 26.878 139.605 26.36V24.512H138.107C137.687 24.512 137.519 24.176 137.519 23.77C137.519 23.378 137.687 23.042 138.107 23.042H139.605V22.328H138.107C137.687 22.328 137.519 21.992 137.519 21.586C137.519 21.194 137.687 20.858 138.107 20.858H139.605V19.794C139.605 19.276 140.039 19.038 140.487 19.038C140.935 19.038 141.369 19.276 141.369 19.794ZM139.577 31.442V29.468C139.577 29.23 139.493 29.146 139.255 29.146H133.291C132.857 29.146 132.661 28.796 132.661 28.39C132.661 27.984 132.857 27.634 133.291 27.634H140.179C141.075 27.634 141.369 27.914 141.369 28.796V31.442C141.369 31.96 140.935 32.198 140.473 32.198C140.011 32.198 139.577 31.96 139.577 31.442ZM147.125 22.944C149.043 22.944 150.233 24.064 150.233 25.758C150.233 27.452 149.043 28.572 147.125 28.572C145.207 28.572 144.017 27.452 144.017 25.758C144.017 24.064 145.207 22.944 147.125 22.944ZM143.863 20.732H146.229V19.766C146.229 19.248 146.663 19.01 147.125 19.01C147.587 19.01 148.021 19.248 148.021 19.766V20.732H150.219C150.653 20.732 150.849 21.082 150.849 21.488C150.849 21.894 150.653 22.244 150.219 22.244H143.863C143.429 22.244 143.233 21.894 143.233 21.488C143.233 21.082 143.429 20.732 143.863 20.732ZM147.125 27.144C148.021 27.144 148.609 26.612 148.609 25.758C148.609 24.904 148.021 24.372 147.125 24.372C146.229 24.372 145.641 24.904 145.641 25.758C145.641 26.612 146.229 27.144 147.125 27.144ZM153.425 19.794V23.308H154.741C155.189 23.308 155.385 23.658 155.385 24.078C155.385 24.512 155.189 24.862 154.741 24.862H153.425V30.518C153.425 31.036 152.991 31.274 152.543 31.274C152.081 31.274 151.647 31.036 151.647 30.518V19.794C151.647 19.276 152.081 19.038 152.543 19.038C152.991 19.038 153.425 19.276 153.425 19.794ZM162.696 20.998V25.002C162.696 25.884 162.402 26.164 161.506 26.164H157.824C156.928 26.164 156.634 25.884 156.634 25.002V20.998C156.634 20.116 156.928 19.836 157.824 19.836H161.506C162.402 19.836 162.696 20.116 162.696 20.998ZM160.946 24.344V21.656C160.946 21.418 160.862 21.334 160.624 21.334H158.706C158.468 21.334 158.384 21.418 158.384 21.656V24.344C158.384 24.582 158.468 24.666 158.706 24.666H160.624C160.862 24.666 160.946 24.582 160.946 24.344ZM166.854 19.794V27.83C166.854 28.348 166.42 28.586 165.972 28.586C165.524 28.586 165.09 28.348 165.09 27.83V25.198H163.858C163.424 25.198 163.242 24.848 163.242 24.428C163.242 24.022 163.424 23.672 163.858 23.672H165.09V22.398H163.858C163.424 22.398 163.242 22.048 163.242 21.628C163.242 21.222 163.424 20.872 163.858 20.872H165.09V19.794C165.09 19.276 165.524 19.038 165.972 19.038C166.42 19.038 166.854 19.276 166.854 19.794ZM166.532 31.918H159.56C158.664 31.918 158.37 31.638 158.37 30.756V28.11C158.37 27.592 158.804 27.354 159.28 27.354C159.742 27.354 160.176 27.592 160.176 28.11V30.07C160.176 30.308 160.26 30.392 160.498 30.392H166.532C166.966 30.392 167.162 30.742 167.162 31.162C167.162 31.568 166.966 31.918 166.532 31.918ZM27.9473 42.972C29.6693 42.972 30.6633 44.078 30.6633 45.73C30.6633 47.382 29.6693 48.488 27.9473 48.488C26.2253 48.488 25.2313 47.382 25.2313 45.73C25.2313 44.078 26.2253 42.972 27.9473 42.972ZM25.2033 40.83H27.0653V39.864C27.0653 39.36 27.4993 39.122 27.9473 39.122C28.3953 39.122 28.8293 39.36 28.8293 39.864V40.83H30.4813C30.9153 40.83 31.1113 41.18 31.1113 41.572C31.1113 41.978 30.9153 42.328 30.4813 42.328H25.2033C24.7693 42.328 24.5733 41.978 24.5733 41.572C24.5733 41.18 24.7693 40.83 25.2033 40.83ZM27.9473 47.06C28.6613 47.06 29.1373 46.598 29.1373 45.73C29.1373 44.862 28.6613 44.4 27.9473 44.4C27.2333 44.4 26.7573 44.862 26.7573 45.73C26.7573 46.598 27.2333 47.06 27.9473 47.06ZM33.0993 39.864V43.392H34.2193V39.738C34.2193 39.262 34.6253 39.038 35.0313 39.038C35.4513 39.038 35.8573 39.262 35.8573 39.738V50.574C35.8573 51.05 35.4513 51.274 35.0313 51.274C34.6253 51.274 34.2193 51.05 34.2193 50.574V44.904H33.0993V50C33.0993 50.462 32.6933 50.686 32.2873 50.686C31.8813 50.686 31.4753 50.462 31.4753 50V39.864C31.4753 39.402 31.8813 39.178 32.2873 39.178C32.6933 39.178 33.0993 39.402 33.0993 39.864ZM42.3695 40.242V41.446C42.3695 42.286 42.5935 42.846 43.1955 43.364C43.8115 43.882 44.3435 44.302 44.7635 44.61C45.1555 44.89 45.1275 45.338 44.8755 45.688C44.6655 45.982 44.2035 46.206 43.7835 45.912C43.4475 45.674 42.9295 45.268 42.3835 44.806C41.7255 44.26 41.5575 44.036 41.4875 43.77H41.4735C41.4035 44.078 41.1935 44.358 40.5355 44.904C39.9895 45.366 39.4715 45.772 38.9255 46.164C38.5195 46.458 38.0435 46.234 37.8335 45.94C37.5955 45.604 37.5255 45.114 37.9595 44.806C38.5755 44.358 39.1075 43.938 39.7235 43.42C40.3255 42.902 40.5495 42.342 40.5495 41.502V40.242C40.5495 39.71 40.9835 39.472 41.4595 39.472C41.9355 39.472 42.3695 39.71 42.3695 40.242ZM46.4995 43.056H44.7495C44.3155 43.056 44.1195 42.706 44.1195 42.3C44.1195 41.88 44.3155 41.53 44.7495 41.53H46.4995V39.794C46.4995 39.276 46.9335 39.038 47.3955 39.038C47.8435 39.038 48.2775 39.276 48.2775 39.794V45.94C48.2775 46.458 47.8435 46.696 47.3955 46.696C46.9335 46.696 46.4995 46.458 46.4995 45.94V43.056ZM46.4855 51.442V49.048C46.4855 48.81 46.4015 48.726 46.1635 48.726H40.1995C39.7655 48.726 39.5695 48.376 39.5695 47.97C39.5695 47.564 39.7655 47.214 40.1995 47.214H47.0875C47.9835 47.214 48.2775 47.494 48.2775 48.376V51.442C48.2775 51.96 47.8435 52.198 47.3815 52.198C46.9195 52.198 46.4855 51.96 46.4855 51.442ZM53.4317 42.972C55.1537 42.972 56.1477 44.078 56.1477 45.73C56.1477 47.382 55.1537 48.488 53.4317 48.488C51.7097 48.488 50.7157 47.382 50.7157 45.73C50.7157 44.078 51.7097 42.972 53.4317 42.972ZM50.6877 40.83H52.5497V39.864C52.5497 39.36 52.9837 39.122 53.4317 39.122C53.8797 39.122 54.3137 39.36 54.3137 39.864V40.83H55.9657C56.3997 40.83 56.5957 41.18 56.5957 41.572C56.5957 41.978 56.3997 42.328 55.9657 42.328H50.6877C50.2537 42.328 50.0577 41.978 50.0577 41.572C50.0577 41.18 50.2537 40.83 50.6877 40.83ZM53.4317 47.06C54.1457 47.06 54.6217 46.598 54.6217 45.73C54.6217 44.862 54.1457 44.4 53.4317 44.4C52.7177 44.4 52.2417 44.862 52.2417 45.73C52.2417 46.598 52.7177 47.06 53.4317 47.06ZM58.5837 39.864V43.392H59.7037V39.738C59.7037 39.262 60.1097 39.038 60.5157 39.038C60.9357 39.038 61.3417 39.262 61.3417 39.738V50.574C61.3417 51.05 60.9357 51.274 60.5157 51.274C60.1097 51.274 59.7037 51.05 59.7037 50.574V44.904H58.5837V50C58.5837 50.462 58.1777 50.686 57.7717 50.686C57.3657 50.686 56.9597 50.462 56.9597 50V39.864C56.9597 39.402 57.3657 39.178 57.7717 39.178C58.1777 39.178 58.5837 39.402 58.5837 39.864ZM71.4659 41.026H68.4979C68.0639 41.026 67.8679 40.676 67.8679 40.27C67.8679 39.878 68.0639 39.528 68.4979 39.528H76.2539C76.6879 39.528 76.8839 39.878 76.8839 40.27C76.8839 40.676 76.6879 41.026 76.2539 41.026H73.2859V41.152C73.2859 41.628 73.5939 41.978 74.4339 42.328C75.2879 42.678 76.0019 42.958 76.8139 43.238C77.2059 43.378 77.3319 43.812 77.1919 44.19C77.0239 44.638 76.6599 44.862 76.1839 44.694C75.4559 44.442 74.7699 44.176 74.0419 43.882C72.7819 43.364 72.5019 43.042 72.3899 42.706H72.3759C72.2639 43.084 71.9699 43.406 70.7099 43.924C69.9819 44.218 69.2959 44.484 68.5679 44.736C68.0919 44.904 67.7279 44.68 67.5599 44.218C67.4199 43.826 67.5319 43.378 67.9379 43.238C68.7499 42.958 69.4639 42.678 70.3179 42.328C71.1579 41.978 71.4659 41.628 71.4659 41.152V41.026ZM71.6759 46.962H67.0839C66.6499 46.962 66.4539 46.612 66.4539 46.22C66.4539 45.814 66.6499 45.464 67.0839 45.464H77.6679C78.1019 45.464 78.2979 45.814 78.2979 46.22C78.2979 46.612 78.1019 46.962 77.6679 46.962H73.4539V48.614C73.4539 49.09 73.0619 49.3 72.5579 49.3C72.0679 49.3 71.6759 49.09 71.6759 48.614V46.962ZM70.0939 50.462H76.3799C76.8139 50.462 77.0099 50.812 77.0099 51.218C77.0099 51.624 76.8139 51.974 76.3799 51.974H69.1559C68.2599 51.974 67.9659 51.694 67.9659 50.812V48.642C67.9659 48.124 68.3999 47.886 68.8759 47.886C69.3379 47.886 69.7719 48.124 69.7719 48.642V50.14C69.7719 50.378 69.8559 50.462 70.0939 50.462ZM85.258 41.502H81.758C81.52 41.502 81.436 41.586 81.436 41.824V46.22C81.436 46.458 81.52 46.542 81.758 46.542C83.34 46.542 84.782 46.458 86.14 46.276C86.574 46.22 86.826 46.528 86.868 46.934C86.91 47.354 86.77 47.732 86.364 47.788C85.216 47.942 83.606 48.068 80.834 48.068C79.938 48.068 79.644 47.788 79.644 46.906V41.138C79.644 40.256 79.938 39.976 80.834 39.976H85.258C85.692 39.976 85.888 40.326 85.888 40.746C85.888 41.152 85.692 41.502 85.258 41.502ZM89.318 43.168H90.634C91.082 43.168 91.278 43.518 91.278 43.938C91.278 44.372 91.082 44.722 90.634 44.722H89.318V50.518C89.318 51.036 88.884 51.274 88.422 51.274C87.96 51.274 87.526 51.036 87.526 50.518V39.794C87.526 39.276 87.96 39.038 88.422 39.038C88.884 39.038 89.318 39.276 89.318 39.794V43.168ZM103.166 46.696H92.5542C92.1342 46.696 91.9382 46.36 91.9382 45.954C91.9382 45.548 92.1342 45.212 92.5542 45.212H96.9782V44.078H94.6682C93.7722 44.078 93.4782 43.798 93.4782 42.916V40.634C93.4782 39.752 93.7722 39.472 94.6682 39.472H101.052C101.948 39.472 102.242 39.752 102.242 40.634V42.916C102.242 43.798 101.948 44.078 101.052 44.078H98.7422V45.212H103.166C103.586 45.212 103.782 45.548 103.782 45.954C103.782 46.36 103.586 46.696 103.166 46.696ZM93.4502 49.846C93.4502 48.124 95.1162 47.368 97.8602 47.368C100.604 47.368 102.27 48.124 102.27 49.846C102.27 51.568 100.604 52.324 97.8602 52.324C95.1162 52.324 93.4502 51.568 93.4502 49.846ZM100.492 49.846C100.492 49.174 99.7362 48.782 97.8602 48.782C95.9842 48.782 95.2282 49.174 95.2282 49.846C95.2282 50.518 95.9842 50.91 97.8602 50.91C99.7362 50.91 100.492 50.518 100.492 49.846ZM95.5782 42.622H100.142C100.38 42.622 100.464 42.538 100.464 42.3V41.25C100.464 41.012 100.38 40.928 100.142 40.928H95.5782C95.3402 40.928 95.2562 41.012 95.2562 41.25V42.3C95.2562 42.538 95.3402 42.622 95.5782 42.622ZM106.472 48.516C107.074 48.516 107.536 48.978 107.536 49.58C107.536 50.182 107.074 50.644 106.472 50.644C105.87 50.644 105.408 50.182 105.408 49.58C105.408 48.978 105.87 48.516 106.472 48.516ZM106.472 39.556C107.06 39.556 107.466 39.794 107.452 40.41L107.228 46.808C107.214 47.382 106.85 47.578 106.472 47.578C106.094 47.578 105.73 47.382 105.716 46.808L105.492 40.41C105.478 39.794 105.884 39.556 106.472 39.556ZM116.459 42.552C118.363 42.552 119.539 43.462 119.539 44.932C119.539 46.402 118.363 47.312 116.459 47.312C114.555 47.312 113.379 46.402 113.379 44.932C113.379 43.462 114.555 42.552 116.459 42.552ZM119.553 41.964H113.225C112.791 41.964 112.595 41.614 112.595 41.208C112.595 40.802 112.791 40.452 113.225 40.452H115.563V39.766C115.563 39.248 115.997 39.01 116.459 39.01C116.921 39.01 117.355 39.248 117.355 39.766V40.452H119.553C119.987 40.452 120.183 40.802 120.183 41.208C120.183 41.614 119.987 41.964 119.553 41.964ZM116.459 45.94C117.453 45.94 117.929 45.506 117.929 44.932C117.929 44.358 117.453 43.924 116.459 43.924C115.465 43.924 114.989 44.358 114.989 44.932C114.989 45.506 115.465 45.94 116.459 45.94ZM122.787 39.794V42.692H124.117C124.551 42.692 124.747 43.042 124.747 43.462C124.747 43.882 124.551 44.232 124.117 44.232H122.787V47.97C122.787 48.488 122.353 48.726 121.905 48.726C121.443 48.726 121.009 48.488 121.009 47.97V39.794C121.009 39.276 121.443 39.038 121.905 39.038C122.353 39.038 122.787 39.276 122.787 39.794ZM122.465 51.918H115.689C114.793 51.918 114.499 51.638 114.499 50.756V48.642C114.499 48.124 114.933 47.886 115.409 47.886C115.871 47.886 116.305 48.124 116.305 48.642V50.07C116.305 50.308 116.389 50.392 116.627 50.392H122.465C122.899 50.392 123.095 50.742 123.095 51.162C123.095 51.568 122.899 51.918 122.465 51.918ZM137.937 47.83V43.798H135.641V45.198C135.641 46.08 135.347 46.36 134.451 46.36H130.699C129.803 46.36 129.509 46.08 129.509 45.198V40.466C129.509 39.962 129.943 39.724 130.391 39.724C130.839 39.724 131.273 39.962 131.273 40.466V41.922H133.877V40.466C133.877 39.962 134.311 39.724 134.759 39.724C135.207 39.724 135.641 39.962 135.641 40.466V42.286H137.937V39.794C137.937 39.276 138.371 39.038 138.833 39.038C139.281 39.038 139.715 39.276 139.715 39.794V47.83C139.715 48.348 139.281 48.586 138.833 48.586C138.371 48.586 137.937 48.348 137.937 47.83ZM139.393 51.918H132.421C131.525 51.918 131.231 51.638 131.231 50.756V48.194C131.231 47.676 131.665 47.438 132.141 47.438C132.603 47.438 133.037 47.676 133.037 48.194V50.07C133.037 50.308 133.121 50.392 133.359 50.392H139.393C139.827 50.392 140.023 50.742 140.023 51.162C140.023 51.568 139.827 51.918 139.393 51.918ZM131.595 44.89H133.555C133.793 44.89 133.877 44.806 133.877 44.568V43.392H131.273V44.568C131.273 44.806 131.357 44.89 131.595 44.89ZM148.369 42.972C150.091 42.972 151.085 44.078 151.085 45.73C151.085 47.382 150.091 48.488 148.369 48.488C146.647 48.488 145.653 47.382 145.653 45.73C145.653 44.078 146.647 42.972 148.369 42.972ZM145.625 40.83H147.487V39.864C147.487 39.36 147.921 39.122 148.369 39.122C148.817 39.122 149.251 39.36 149.251 39.864V40.83H150.903C151.337 40.83 151.533 41.18 151.533 41.572C151.533 41.978 151.337 42.328 150.903 42.328H145.625C145.191 42.328 144.995 41.978 144.995 41.572C144.995 41.18 145.191 40.83 145.625 40.83ZM148.369 47.06C149.083 47.06 149.559 46.598 149.559 45.73C149.559 44.862 149.083 44.4 148.369 44.4C147.655 44.4 147.179 44.862 147.179 45.73C147.179 46.598 147.655 47.06 148.369 47.06ZM153.521 39.864V43.392H154.641V39.738C154.641 39.262 155.047 39.038 155.453 39.038C155.873 39.038 156.279 39.262 156.279 39.738V50.574C156.279 51.05 155.873 51.274 155.453 51.274C155.047 51.274 154.641 51.05 154.641 50.574V44.904H153.521V50C153.521 50.462 153.115 50.686 152.709 50.686C152.303 50.686 151.897 50.462 151.897 50V39.864C151.897 39.402 152.303 39.178 152.709 39.178C153.115 39.178 153.521 39.402 153.521 39.864ZM169.133 46.234H158.493C158.087 46.234 157.891 45.912 157.891 45.506C157.891 45.114 158.087 44.792 158.493 44.792H162.931V43.882H160.621C159.725 43.882 159.431 43.602 159.431 42.72V39.864C159.431 39.374 159.865 39.136 160.299 39.136C160.733 39.136 161.167 39.374 161.167 39.864V40.368H166.459V39.864C166.459 39.374 166.893 39.136 167.327 39.136C167.761 39.136 168.195 39.374 168.195 39.864V42.72C168.195 43.602 167.901 43.882 167.005 43.882H164.695V44.792H169.133C169.539 44.792 169.735 45.114 169.735 45.506C169.735 45.912 169.539 46.234 169.133 46.234ZM159.935 46.878H167.019C167.915 46.878 168.209 47.158 168.209 48.04V49.006C168.209 49.888 167.915 50.168 167.019 50.168H161.321C161.181 50.168 161.111 50.238 161.111 50.378V50.588C161.111 50.728 161.181 50.798 161.321 50.798H167.915C168.307 50.798 168.489 51.134 168.489 51.47C168.489 51.834 168.307 52.156 167.915 52.156H160.579C159.683 52.156 159.389 51.876 159.389 50.994V50.028C159.389 49.146 159.683 48.866 160.579 48.866H166.277C166.417 48.866 166.487 48.796 166.487 48.656V48.446C166.487 48.306 166.417 48.236 166.277 48.236H159.935C159.543 48.236 159.361 47.914 159.361 47.55C159.361 47.214 159.543 46.878 159.935 46.878ZM161.377 42.482H166.249C166.389 42.482 166.459 42.412 166.459 42.272V41.754H161.167V42.272C161.167 42.412 161.237 42.482 161.377 42.482ZM172.132 48.264C171.236 48.264 170.942 47.984 170.942 47.102V44.526C170.942 43.644 171.236 43.364 172.132 43.364H174.008C174.246 43.364 174.33 43.28 174.33 43.042V41.824C174.33 41.586 174.246 41.502 174.008 41.502H171.558C171.124 41.502 170.928 41.152 170.928 40.746C170.928 40.34 171.124 39.99 171.558 39.99H174.862C175.758 39.99 176.052 40.27 176.052 41.152V43.658C176.052 44.54 175.758 44.82 174.862 44.82H172.986C172.748 44.82 172.664 44.904 172.664 45.142V46.43C172.664 46.668 172.748 46.752 172.986 46.752C173.98 46.752 175.156 46.696 176.052 46.57C176.472 46.514 176.724 46.808 176.766 47.214C176.808 47.634 176.668 47.998 176.262 48.068C175.66 48.166 174.302 48.264 172.132 48.264ZM178.992 39.878V43.252H180.112V39.738C180.112 39.262 180.518 39.038 180.938 39.038C181.358 39.038 181.764 39.262 181.764 39.738V50.574C181.764 51.05 181.358 51.274 180.938 51.274C180.518 51.274 180.112 51.05 180.112 50.574V44.764H178.992V49.986C178.992 50.462 178.586 50.686 178.166 50.686C177.76 50.686 177.354 50.462 177.354 49.986V39.878C177.354 39.402 177.76 39.178 178.166 39.178C178.586 39.178 178.992 39.402 178.992 39.878ZM186.708 39.836C188.738 39.836 189.956 40.9 189.956 42.426V42.58C189.956 43.49 189.592 44.092 188.276 45.282C187.464 46.01 187.352 46.304 187.352 46.892C187.352 47.312 186.974 47.578 186.54 47.578C186.078 47.578 185.686 47.354 185.686 46.85C185.686 45.87 185.84 45.352 186.848 44.47C188.01 43.462 188.164 43.154 188.164 42.594V42.524C188.164 41.936 187.758 41.418 186.652 41.418C185.91 41.418 185.378 41.67 184.874 42.02C184.51 42.272 184.118 42.174 183.852 41.824C183.586 41.488 183.586 41.012 183.95 40.732C184.636 40.2 185.546 39.836 186.708 39.836ZM186.526 48.516C187.128 48.516 187.59 48.978 187.59 49.58C187.59 50.182 187.128 50.644 186.526 50.644C185.924 50.644 185.462 50.182 185.462 49.58C185.462 48.978 185.924 48.516 186.526 48.516Z" fill="#6321B5"/>
</g>
<defs>
<filter id="filter0_d_1966_17495" x="0" y="0" width="219" height="88" filterUnits="userSpaceOnUse" color-interpolation-filters="sRGB">
<feFlood flood-opacity="0" result="BackgroundImageFix"/>
<feColorMatrix in="SourceAlpha" type="matrix" values="0 0 0 0 0 0 0 0 0 0 0 0 0 0 0 0 0 0 127 0" result="hardAlpha"/>
<feOffset dx="2" dy="2"/>
<feGaussianBlur stdDeviation="5"/>
<feComposite in2="hardAlpha" operator="out"/>
<feColorMatrix type="matrix" values="0 0 0 0 0.101961 0 0 0 0 0.0941176 0 0 0 0 0.105882 0 0 0 0.2 0"/>
<feBlend mode="normal" in2="BackgroundImageFix" result="effect1_dropShadow_1966_17495"/>
<feBlend mode="normal" in="SourceGraphic" in2="effect1_dropShadow_1966_17495" result="shape"/>
</filter>
</defs>
</svg>
