<svg width="41" height="40" viewBox="0 0 41 40" fill="none" xmlns="http://www.w3.org/2000/svg">
<path d="M20.0713 40C31.117 40 40.0713 31.0457 40.0713 20C40.0713 8.9543 31.117 0 20.0713 0C9.02559 0 0.0712891 8.9543 0.0712891 20C0.0712891 31.0457 9.02559 40 20.0713 40Z" fill="url(#paint0_linear_304_4638)"/>
<path d="M31.3684 23.1255C33.8671 22.2195 34.7977 18.4651 33.4469 14.7398C32.0962 11.0145 28.9756 8.72895 26.4769 9.63495C23.9782 10.5409 23.0476 14.2954 24.3984 18.0207C25.7491 21.746 28.8697 24.0315 31.3684 23.1255Z" fill="#FAFAFA"/>
<path d="M29.4965 12.7371L30.134 13.1996L30.9215 13.2746C32.0965 13.3871 32.859 14.5621 32.4965 15.6871L32.2465 16.4371L32.409 17.2121C32.659 18.3621 31.784 19.4621 30.5965 19.4621H29.809L29.1215 19.8621C28.0965 20.4621 26.7965 19.9621 26.4215 18.8371L26.1715 18.0871L25.584 17.5621C24.709 16.7746 24.7715 15.3746 25.7215 14.6871L26.359 14.2246L26.684 13.4996C27.159 12.4246 28.509 12.0496 29.4715 12.7496L29.4965 12.7371Z" fill="#1A063A"/>
<path d="M27.9331 14.7998C28.1747 14.7998 28.3706 14.6039 28.3706 14.3623C28.3706 14.1207 28.1747 13.9248 27.9331 13.9248C27.6915 13.9248 27.4956 14.1207 27.4956 14.3623C27.4956 14.6039 27.6915 14.7998 27.9331 14.7998Z" fill="#FAFAFA"/>
<path d="M27.034 15.6998C27.1444 15.6998 27.234 15.6103 27.234 15.4998C27.234 15.3893 27.1444 15.2998 27.034 15.2998C26.9235 15.2998 26.834 15.3893 26.834 15.4998C26.834 15.6103 26.9235 15.6998 27.034 15.6998Z" fill="#FAFAFA"/>
<path d="M16.2717 17.9321C17.6224 14.2068 16.6918 10.4523 14.1931 9.54635C11.6944 8.64036 8.57385 10.9259 7.2231 14.6512C5.87234 18.3765 6.80293 22.1309 9.30162 23.0369C11.8003 23.9429 14.9209 21.6574 16.2717 17.9321Z" fill="#FAFAFA"/>
<path d="M11.1836 12.6619L10.5461 13.1244L9.75861 13.1994C8.58361 13.3119 7.82111 14.4869 8.18361 15.6119L8.43361 16.3619L8.27112 17.1369C8.02112 18.2869 8.89611 19.3869 10.0836 19.3869H10.8711L11.5586 19.7869C12.5836 20.3869 13.8836 19.8869 14.2586 18.7619L14.5086 18.0119L15.0961 17.4869C15.9711 16.6994 15.9086 15.2994 14.9586 14.6119L14.3211 14.1494L13.9961 13.4244C13.5211 12.3494 12.1711 11.9744 11.2086 12.6744L11.1836 12.6619Z" fill="#1A063A"/>
<path d="M11.3086 14.5498C11.5502 14.5498 11.7461 14.3539 11.7461 14.1123C11.7461 13.8707 11.5502 13.6748 11.3086 13.6748C11.067 13.6748 10.8711 13.8707 10.8711 14.1123C10.8711 14.3539 11.067 14.5498 11.3086 14.5498Z" fill="#FAFAFA"/>
<path d="M10.1092 14.5621C10.2196 14.5621 10.3092 14.4726 10.3092 14.3621C10.3092 14.2517 10.2196 14.1621 10.1092 14.1621C9.99872 14.1621 9.90918 14.2517 9.90918 14.3621C9.90918 14.4726 9.99872 14.5621 10.1092 14.5621Z" fill="#FAFAFA"/>
<path d="M34.3963 26.7877L34.6213 27.3877L35.2213 27.6127C35.3588 27.6627 35.3588 27.8502 35.2213 27.9002L34.6213 28.1252L34.3963 28.7252C34.3463 28.8627 34.1588 28.8627 34.1088 28.7252L33.8838 28.1252L33.2838 27.9002C33.1463 27.8502 33.1463 27.6627 33.2838 27.6127L33.8838 27.3877L34.1088 26.7877C34.1588 26.6502 34.3463 26.6502 34.3963 26.7877Z" fill="#FAFAFA"/>
<path d="M28.659 3.4625L28.884 4.0625L29.484 4.2875C29.6215 4.3375 29.6215 4.525 29.484 4.575L28.884 4.8L28.659 5.4C28.609 5.5375 28.4215 5.5375 28.3715 5.4L28.1465 4.8L27.5465 4.575C27.409 4.525 27.409 4.3375 27.5465 4.2875L28.1465 4.0625L28.3715 3.4625C28.4215 3.325 28.609 3.325 28.659 3.4625Z" fill="#FAFAFA"/>
<path d="M4.1707 13.3629L4.2582 13.6004L4.4957 13.6879C4.6332 13.7379 4.6332 13.9254 4.4957 13.9754L4.2582 14.0629L4.1707 14.3004C4.1207 14.4379 3.9332 14.4379 3.8832 14.3004L3.7957 14.0629L3.5582 13.9754C3.4207 13.9254 3.4207 13.7379 3.5582 13.6879L3.7957 13.6004L3.8832 13.3629C3.9332 13.2254 4.1207 13.2254 4.1707 13.3629Z" fill="#FAFAFA"/>
<path d="M33.0959 29.3746L33.1584 29.5496L33.3334 29.6121C33.4709 29.6621 33.4709 29.8496 33.3334 29.8996L33.1584 29.9621L33.0959 30.1371C33.0459 30.2746 32.8584 30.2746 32.8084 30.1371L32.7459 29.9621L32.5709 29.8996C32.4334 29.8496 32.4334 29.6621 32.5709 29.6121L32.7459 29.5496L32.8084 29.3746C32.8584 29.2371 33.0459 29.2371 33.0959 29.3746Z" fill="#FAFAFA"/>
<path d="M5.32061 25.3629L5.40811 25.6004L5.64561 25.6879C5.78311 25.7379 5.78311 25.9254 5.64561 25.9754L5.40811 26.0629L5.32061 26.3004C5.27061 26.4379 5.08311 26.4379 5.03311 26.3004L4.9456 26.0629L4.70811 25.9754C4.57061 25.9254 4.57061 25.7379 4.70811 25.6879L4.9456 25.6004L5.03311 25.3629C5.08311 25.2254 5.27061 25.2254 5.32061 25.3629Z" fill="#FAFAFA"/>
<path d="M27.3346 26.4752C23.3221 22.4627 16.8221 22.4627 12.8096 26.4752" stroke="#1A063A" stroke-width="2.5" stroke-miterlimit="10" stroke-linecap="round"/>
<path d="M8.33398 8.77539L16.034 6.08789" stroke="#1A063A" stroke-width="2.5" stroke-miterlimit="10" stroke-linecap="round"/>
<path d="M24.833 5.66211L32.183 9.19961" stroke="#1A063A" stroke-width="2.5" stroke-miterlimit="10" stroke-linecap="round"/>
<defs>
<linearGradient id="paint0_linear_304_4638" x1="8.42129" y1="8.35" x2="30.5963" y2="30.525" gradientUnits="userSpaceOnUse">
<stop stop-color="#C6A2FF"/>
<stop offset="0.77" stop-color="#8E32FF"/>
<stop offset="0.9" stop-color="#8C2EFF"/>
</linearGradient>
</defs>
</svg>
