<svg width="24" height="25" viewBox="0 0 24 25" fill="none" xmlns="http://www.w3.org/2000/svg">
<path d="M15.5397 11.5395L9.87974 5.88955C9.78677 5.79582 9.67617 5.72143 9.55431 5.67066C9.43246 5.61989 9.30175 5.59375 9.16974 5.59375C9.03773 5.59375 8.90702 5.61989 8.78516 5.67066C8.6633 5.72143 8.5527 5.79582 8.45974 5.88955C8.27349 6.07691 8.16895 6.33036 8.16895 6.59455C8.16895 6.85873 8.27349 7.11219 8.45974 7.29955L13.4097 12.2995L8.45974 17.2495C8.27349 17.4369 8.16895 17.6904 8.16895 17.9545C8.16895 18.2187 8.27349 18.4722 8.45974 18.6595C8.55235 18.754 8.6628 18.8292 8.78467 18.8807C8.90655 18.9322 9.03743 18.959 9.16974 18.9595C9.30204 18.959 9.43293 18.9322 9.5548 18.8807C9.67668 18.8292 9.78712 18.754 9.87974 18.6595L15.5397 13.0095C15.6412 12.9159 15.7223 12.8023 15.7777 12.6758C15.8331 12.5493 15.8617 12.4127 15.8617 12.2745C15.8617 12.1364 15.8331 11.9998 15.7777 11.8733C15.7223 11.7468 15.6412 11.6332 15.5397 11.5395Z" fill="#A6A1AA"/>
</svg>
