<svg width="41" height="40" viewBox="0 0 41 40" fill="none" xmlns="http://www.w3.org/2000/svg">
<path d="M20.5 40C31.5457 40 40.5 31.0457 40.5 20C40.5 8.9543 31.5457 0 20.5 0C9.45431 0 0.5 8.9543 0.5 20C0.5 31.0457 9.45431 40 20.5 40Z" fill="url(#paint0_linear_304_4639)"/>
<path d="M31.7971 23.1177C34.2958 22.2117 35.2264 18.4573 33.8757 14.732C32.5249 11.0067 29.4043 8.72114 26.9056 9.62713C24.4069 10.5331 23.4763 14.2875 24.8271 18.0129C26.1779 21.7382 29.2984 24.0237 31.7971 23.1177Z" fill="#FAFAFA"/>
<path d="M29.9252 12.7371L30.5627 13.1996L31.3502 13.2746C32.5252 13.3871 33.2877 14.5621 32.9252 15.6871L32.6752 16.4371L32.8377 17.2121C33.0877 18.3621 32.2127 19.4621 31.0252 19.4621H30.2377L29.5502 19.8621C28.5252 20.4621 27.2252 19.9621 26.8502 18.8371L26.6002 18.0871L26.0127 17.5621C25.1377 16.7746 25.2002 15.3746 26.1502 14.6871L26.7877 14.2246L27.1127 13.4996C27.5877 12.4246 28.9377 12.0496 29.9002 12.7496L29.9252 12.7371Z" fill="#1A063A"/>
<path d="M28.3618 14.7998C28.6034 14.7998 28.7993 14.6039 28.7993 14.3623C28.7993 14.1207 28.6034 13.9248 28.3618 13.9248C28.1202 13.9248 27.9243 14.1207 27.9243 14.3623C27.9243 14.6039 28.1202 14.7998 28.3618 14.7998Z" fill="#FAFAFA"/>
<path d="M27.4627 15.6998C27.5732 15.6998 27.6627 15.6103 27.6627 15.4998C27.6627 15.3893 27.5732 15.2998 27.4627 15.2998C27.3522 15.2998 27.2627 15.3893 27.2627 15.4998C27.2627 15.6103 27.3522 15.6998 27.4627 15.6998Z" fill="#FAFAFA"/>
<path d="M16.7033 17.9438C18.054 14.2185 17.1235 10.4641 14.6248 9.55807C12.1261 8.65208 9.00549 10.9376 7.65474 14.6629C6.30399 18.3882 7.23457 22.1427 9.73326 23.0486C12.232 23.9546 15.3525 21.6691 16.7033 17.9438Z" fill="#FAFAFA"/>
<path d="M11.6118 12.6629L10.9743 13.1254L10.1868 13.2004C9.01184 13.3129 8.24933 14.4879 8.61183 15.6129L8.86183 16.3629L8.69933 17.1379C8.44933 18.2879 9.32434 19.3879 10.5118 19.3879H11.2993L11.9868 19.7879C13.0118 20.3879 14.3118 19.8879 14.6868 18.7629L14.9368 18.0129L15.5243 17.4879C16.3993 16.7004 16.3368 15.3004 15.3868 14.6129L14.7493 14.1504L14.4243 13.4254C13.9493 12.3504 12.5993 11.9754 11.6368 12.6754L11.6118 12.6629Z" fill="#1A063A"/>
<path d="M11.7368 14.5498C11.9784 14.5498 12.1743 14.3539 12.1743 14.1123C12.1743 13.8707 11.9784 13.6748 11.7368 13.6748C11.4952 13.6748 11.2993 13.8707 11.2993 14.1123C11.2993 14.3539 11.4952 14.5498 11.7368 14.5498Z" fill="#FAFAFA"/>
<path d="M10.5374 14.5621C10.6479 14.5621 10.7374 14.4726 10.7374 14.3621C10.7374 14.2517 10.6479 14.1621 10.5374 14.1621C10.4269 14.1621 10.3374 14.2517 10.3374 14.3621C10.3374 14.4726 10.4269 14.5621 10.5374 14.5621Z" fill="#FAFAFA"/>
<path d="M34.825 26.7867L35.05 27.3867L35.65 27.6117C35.7875 27.6617 35.7875 27.8492 35.65 27.8992L35.05 28.1242L34.825 28.7242C34.775 28.8617 34.5875 28.8617 34.5375 28.7242L34.3125 28.1242L33.7125 27.8992C33.575 27.8492 33.575 27.6617 33.7125 27.6117L34.3125 27.3867L34.5375 26.7867C34.5875 26.6492 34.775 26.6492 34.825 26.7867Z" fill="#FAFAFA"/>
<path d="M26.1492 2.81211L26.3742 3.41211L26.9742 3.63711C27.1117 3.68711 27.1117 3.87461 26.9742 3.92461L26.3742 4.14961L26.1492 4.74961C26.0992 4.88711 25.9117 4.88711 25.8617 4.74961L25.6367 4.14961L25.0367 3.92461C24.8992 3.87461 24.8992 3.68711 25.0367 3.63711L25.6367 3.41211L25.8617 2.81211C25.9117 2.67461 26.0992 2.67461 26.1492 2.81211Z" fill="#FAFAFA"/>
<path d="M4.59941 13.3619L4.68691 13.5994L4.92441 13.6869C5.06191 13.7369 5.06191 13.9244 4.92441 13.9744L4.68691 14.0619L4.59941 14.2994C4.54941 14.4369 4.36191 14.4369 4.31191 14.2994L4.22441 14.0619L3.98691 13.9744C3.84941 13.9244 3.84941 13.7369 3.98691 13.6869L4.22441 13.5994L4.31191 13.3619C4.36191 13.2244 4.54941 13.2244 4.59941 13.3619Z" fill="#FAFAFA"/>
<path d="M28.5002 3.3873L28.5627 3.5623L28.7377 3.6248C28.8752 3.6748 28.8752 3.8623 28.7377 3.9123L28.5627 3.9748L28.5002 4.1498C28.4502 4.2873 28.2627 4.2873 28.2127 4.1498L28.1502 3.9748L27.9752 3.9123C27.8377 3.8623 27.8377 3.6748 27.9752 3.6248L28.1502 3.5623L28.2127 3.3873C28.2627 3.2498 28.4502 3.2498 28.5002 3.3873Z" fill="#FAFAFA"/>
<path d="M5.74931 25.3619L5.83681 25.5994L6.07432 25.6869C6.21182 25.7369 6.21182 25.9244 6.07432 25.9744L5.83681 26.0619L5.74931 26.2994C5.69931 26.4369 5.51182 26.4369 5.46182 26.2994L5.37432 26.0619L5.13682 25.9744C4.99932 25.9244 4.99932 25.7369 5.13682 25.6869L5.37432 25.5994L5.46182 25.3619C5.51182 25.2244 5.69931 25.2244 5.74931 25.3619Z" fill="#FAFAFA"/>
<path d="M8.53711 7.71259C11.4121 6.46259 14.1371 6.22509 16.6746 7.16259" stroke="#1A063A" stroke-width="2.5" stroke-miterlimit="10" stroke-linecap="round"/>
<path d="M32.7122 7.71259C29.8372 6.46259 27.1122 6.22509 24.5747 7.16259" stroke="#1A063A" stroke-width="2.5" stroke-miterlimit="10" stroke-linecap="round"/>
<path d="M16.413 25.75C16.313 31.075 24.463 31.225 24.563 25.9" stroke="#1A063A" stroke-width="2.5" stroke-miterlimit="10" stroke-linecap="round"/>
<defs>
<linearGradient id="paint0_linear_304_4639" x1="8.85" y1="8.35" x2="31.025" y2="30.525" gradientUnits="userSpaceOnUse">
<stop stop-color="#C9F8EE"/>
<stop offset="0.77" stop-color="#5FDDC6"/>
</linearGradient>
</defs>
</svg>
