<svg width="25" height="24" viewBox="0 0 25 24" fill="none" xmlns="http://www.w3.org/2000/svg">
<path d="M11.8691 2.22488C12.1614 1.98651 12.5565 1.93863 12.8906 2.08035C13.0054 2.12905 13.1133 2.1996 13.207 2.29324L22.207 11.2932C22.4928 11.5792 22.5785 12.0095 22.4238 12.3831C22.2689 12.7565 21.9042 13.0002 21.4999 13.0003H20.4999V19.0003C20.4999 19.7958 20.1836 20.5588 19.621 21.1214C19.41 21.3324 19.1706 21.5087 18.9121 21.6468C18.4814 21.8766 17.997 22.0002 17.4999 22.0003H7.49995L7.20307 21.9856C6.81098 21.9466 6.43221 21.8305 6.08784 21.6468C5.82926 21.5087 5.5899 21.3324 5.37885 21.1214C4.8163 20.5588 4.50002 19.7958 4.49995 19.0003V13.0003H3.49995C3.39896 13.0003 3.30036 12.985 3.20698 12.9563C2.92653 12.8704 2.6923 12.6632 2.57612 12.3831C2.42135 12.0095 2.507 11.5792 2.79291 11.2932L11.7929 2.29324L11.8691 2.22488ZM10.4999 11.5003C10.2238 11.5003 9.99995 11.7241 9.99995 12.0003V16.0003C10 16.1383 10.0559 16.2633 10.1464 16.3538C10.2369 16.4443 10.3619 16.5003 10.4999 16.5003H14.4999C14.638 16.5002 14.763 16.4443 14.8535 16.3538C14.9439 16.2634 14.9999 16.1383 14.9999 16.0003V12.0003C14.9999 11.7586 14.8284 11.5566 14.6005 11.51L14.4999 11.5003H10.4999Z" fill="#433F46"/>
</svg>
