<svg width="41" height="40" viewBox="0 0 41 40" fill="none" xmlns="http://www.w3.org/2000/svg">
<path d="M20.7856 40C31.8313 40 40.7856 31.0457 40.7856 20C40.7856 8.9543 31.8313 0 20.7856 0C9.73995 0 0.785645 8.9543 0.785645 20C0.785645 31.0457 9.73995 40 20.7856 40Z" fill="url(#paint0_linear_304_4640)"/>
<path d="M32.0891 23.1138C34.5878 22.2078 35.5184 18.4534 34.1676 14.7281C32.8169 11.0028 29.6963 8.71723 27.1976 9.62323C24.6989 10.5292 23.7683 14.2836 25.1191 18.009C26.4698 21.7343 29.5904 24.0198 32.0891 23.1138Z" fill="#FAFAFA"/>
<path d="M30.2235 12.7381L30.861 13.2006L31.6485 13.2756C32.8235 13.3881 33.586 14.5631 33.2235 15.6881L32.9735 16.4381L33.136 17.2131C33.386 18.3631 32.511 19.4631 31.3235 19.4631H30.536L29.8485 19.8631C28.8235 20.4631 27.5235 19.9631 27.1485 18.8381L26.8985 18.0881L26.311 17.5631C25.436 16.7756 25.4985 15.3756 26.4485 14.6881L27.086 14.2256L27.411 13.5006C27.886 12.4256 29.236 12.0506 30.1985 12.7506L30.2235 12.7381Z" fill="#1A063A"/>
<path d="M28.6611 14.8008C28.9028 14.8008 29.0986 14.6049 29.0986 14.3633C29.0986 14.1217 28.9028 13.9258 28.6611 13.9258C28.4195 13.9258 28.2236 14.1217 28.2236 14.3633C28.2236 14.6049 28.4195 14.8008 28.6611 14.8008Z" fill="#FAFAFA"/>
<path d="M27.761 15.7008C27.8715 15.7008 27.961 15.6112 27.961 15.5008C27.961 15.3903 27.8715 15.3008 27.761 15.3008C27.6506 15.3008 27.561 15.3903 27.561 15.5008C27.561 15.6112 27.6506 15.7008 27.761 15.7008Z" fill="#FAFAFA"/>
<path d="M16.9938 17.9379C18.3446 14.2126 17.414 10.4582 14.9153 9.55222C12.4166 8.64623 9.29602 10.9317 7.94527 14.6571C6.59451 18.3824 7.5251 22.1368 10.0238 23.0428C12.5225 23.9488 15.6431 21.6633 16.9938 17.9379Z" fill="#FAFAFA"/>
<path d="M11.8985 12.6619L11.261 13.1244L10.4735 13.1994C9.29846 13.3119 8.53596 14.4869 8.89846 15.6119L9.14845 16.3619L8.98595 17.1369C8.73595 18.2869 9.61095 19.3869 10.7985 19.3869H11.586L12.2735 19.7869C13.2985 20.3869 14.5985 19.8869 14.9735 18.7619L15.2235 18.0119L15.811 17.4869C16.686 16.6994 16.6235 15.2994 15.6735 14.6119L15.036 14.1494L14.711 13.4244C14.236 12.3494 12.886 11.9744 11.9235 12.6744L11.8985 12.6619Z" fill="#1A063A"/>
<path d="M12.0356 14.5498C12.2773 14.5498 12.4731 14.3539 12.4731 14.1123C12.4731 13.8707 12.2773 13.6748 12.0356 13.6748C11.794 13.6748 11.5981 13.8707 11.5981 14.1123C11.5981 14.3539 11.794 14.5498 12.0356 14.5498Z" fill="#FAFAFA"/>
<path d="M10.8231 14.5621C10.9335 14.5621 11.023 14.4726 11.023 14.3621C11.023 14.2517 10.9335 14.1621 10.8231 14.1621C10.7126 14.1621 10.623 14.2517 10.623 14.3621C10.623 14.4726 10.7126 14.5621 10.8231 14.5621Z" fill="#FAFAFA"/>
<path d="M35.1102 26.7867L35.3352 27.3867L35.9352 27.6117C36.0727 27.6617 36.0727 27.8492 35.9352 27.8992L35.3352 28.1242L35.1102 28.7242C35.0602 28.8617 34.8727 28.8617 34.8227 28.7242L34.5977 28.1242L33.9977 27.8992C33.8602 27.8492 33.8602 27.6617 33.9977 27.6117L34.5977 27.3867L34.8227 26.7867C34.8727 26.6492 35.0602 26.6492 35.1102 26.7867Z" fill="#FAFAFA"/>
<path d="M26.4354 2.81211L26.6604 3.41211L27.2604 3.63711C27.3979 3.68711 27.3979 3.87461 27.2604 3.92461L26.6604 4.14961L26.4354 4.74961C26.3854 4.88711 26.1979 4.88711 26.1479 4.74961L25.9229 4.14961L25.3229 3.92461C25.1854 3.87461 25.1854 3.68711 25.3229 3.63711L25.9229 3.41211L26.1479 2.81211C26.1979 2.67461 26.3854 2.67461 26.4354 2.81211Z" fill="#FAFAFA"/>
<path d="M4.89825 13.3619L4.98575 13.5994L5.22324 13.6869C5.36074 13.7369 5.36074 13.9244 5.22324 13.9744L4.98575 14.0619L4.89825 14.2994C4.84825 14.4369 4.66074 14.4369 4.61074 14.2994L4.52325 14.0619L4.28574 13.9744C4.14824 13.9244 4.14824 13.7369 4.28574 13.6869L4.52325 13.5994L4.61074 13.3619C4.66074 13.2244 4.84825 13.2244 4.89825 13.3619Z" fill="#FAFAFA"/>
<path d="M28.7985 3.3873L28.861 3.5623L29.036 3.6248C29.1735 3.6748 29.1735 3.8623 29.036 3.9123L28.861 3.9748L28.7985 4.1498C28.7485 4.2873 28.561 4.2873 28.511 4.1498L28.4485 3.9748L28.2735 3.9123C28.136 3.8623 28.136 3.6748 28.2735 3.6248L28.4485 3.5623L28.511 3.3873C28.561 3.2498 28.7485 3.2498 28.7985 3.3873Z" fill="#FAFAFA"/>
<path d="M6.03593 25.3619L6.12343 25.5994L6.36094 25.6869C6.49844 25.7369 6.49844 25.9244 6.36094 25.9744L6.12343 26.0619L6.03593 26.2994C5.98593 26.4369 5.79844 26.4369 5.74844 26.2994L5.66094 26.0619L5.42344 25.9744C5.28594 25.9244 5.28594 25.7369 5.42344 25.6869L5.66094 25.5994L5.74844 25.3619C5.79844 25.2244 5.98593 25.2244 6.03593 25.3619Z" fill="#FAFAFA"/>
<path d="M8.83594 7.71259C11.7109 6.46259 14.4359 6.22509 16.9734 7.16259" stroke="#1A063A" stroke-width="2.5" stroke-miterlimit="10" stroke-linecap="round"/>
<path d="M32.9979 7.71259C30.1229 6.46259 27.3979 6.22509 24.8604 7.16259" stroke="#1A063A" stroke-width="2.5" stroke-miterlimit="10" stroke-linecap="round"/>
<path d="M16.7109 25.75L24.8609 25.9" stroke="#1A063A" stroke-width="2.5" stroke-miterlimit="10" stroke-linecap="round"/>
<defs>
<linearGradient id="paint0_linear_304_4640" x1="9.13564" y1="8.35" x2="31.3106" y2="30.525" gradientUnits="userSpaceOnUse">
<stop stop-color="#A4B1FE"/>
<stop offset="0.77" stop-color="#2E5CE6"/>
</linearGradient>
</defs>
</svg>
