<svg width="25" height="24" viewBox="0 0 25 24" fill="none" xmlns="http://www.w3.org/2000/svg">
<path d="M18.9014 4.93066C19.1486 5.09817 19.3665 5.30905 19.541 5.55566C19.8398 5.97798 20.0001 6.48269 20 7V19C20 19.663 19.7364 20.2987 19.2676 20.7676C18.7987 21.2364 18.163 21.5 17.5 21.5H7.5C6.83696 21.5 6.20126 21.2364 5.73242 20.7676C5.26358 20.2987 5 19.663 5 19V7L5.00781 6.80664C5.03758 6.42187 5.15566 6.04911 5.35352 5.71777L5.45898 5.55566C5.63337 5.30927 5.85065 5.0981 6.09766 4.93066C6.28352 5.80975 6.72882 6.61947 7.38574 7.24902C8.17131 8.00177 9.2013 8.44312 10.2832 8.49512L10.5 8.5H14.5C15.615 8.50009 16.6904 8.0864 17.5176 7.33887C18.2247 6.69981 18.7059 5.85515 18.9014 4.93066ZM9.5 14.5C9.10218 14.5 8.72076 14.6581 8.43945 14.9395C8.15815 15.2208 8 15.6022 8 16C8 16.3978 8.15815 16.7792 8.43945 17.0605C8.72076 17.3419 9.10218 17.5 9.5 17.5H15.5C15.8978 17.5 16.2792 17.3419 16.5605 17.0605C16.8419 16.7792 17 16.3978 17 16C17 15.6022 16.8419 15.2208 16.5605 14.9395C16.2792 14.6581 15.8978 14.5 15.5 14.5H9.5ZM9.5 10.5C9.10218 10.5 8.72076 10.6581 8.43945 10.9395C8.15815 11.2208 8 11.6022 8 12C8 12.3978 8.15815 12.7792 8.43945 13.0605C8.72076 13.3419 9.10218 13.5 9.5 13.5H15.5C15.8978 13.5 16.2792 13.3419 16.5605 13.0605C16.8419 12.7792 17 12.3978 17 12C17 11.6022 16.8419 11.2208 16.5605 10.9395C16.2792 10.6581 15.8978 10.5 15.5 10.5H9.5ZM10.5 2.5H14.5C14.848 2.5 15.1833 2.62124 15.4502 2.83984L15.5605 2.93945C15.8419 3.22076 16 3.60218 16 4C16 4.39782 15.8419 4.77924 15.5605 5.06055C15.2792 5.34185 14.8978 5.5 14.5 5.5H10.5C10.1022 5.5 9.72076 5.34185 9.43945 5.06055C9.15815 4.77924 9 4.39782 9 4C9 3.65199 9.12124 3.31669 9.33984 3.0498L9.43945 2.93945C9.72076 2.65815 10.1022 2.5 10.5 2.5Z" fill="#433F46" stroke="#433F46"/>
</svg>
