<svg width="25" height="24" viewBox="0 0 25 24" fill="none" xmlns="http://www.w3.org/2000/svg">
<path d="M18.497 4.17C19.0827 4.37638 19.59 4.75945 19.9487 5.26635C20.3075 5.77324 20.5001 6.37899 20.5 7V19C20.5 19.7956 20.1839 20.5587 19.6213 21.1213C19.0587 21.6839 18.2956 22 17.5 22H7.5C6.70435 22 5.94129 21.6839 5.37868 21.1213C4.81607 20.5587 4.5 19.7956 4.5 19V7C4.49989 6.37899 4.69251 5.77324 5.05128 5.26635C5.41005 4.75945 5.91728 4.37638 6.503 4.17C6.54684 5.20061 6.98713 6.17443 7.73194 6.88812C8.47674 7.6018 9.46846 8.00016 10.5 8H14.5C15.4912 8.00009 16.447 7.63219 17.1824 6.96761C17.9177 6.30303 18.3801 5.38911 18.48 4.403L18.497 4.17ZM15.5 15H9.5C9.23478 15 8.98043 15.1054 8.79289 15.2929C8.60536 15.4804 8.5 15.7348 8.5 16C8.5 16.2652 8.60536 16.5196 8.79289 16.7071C8.98043 16.8946 9.23478 17 9.5 17H15.5C15.7652 17 16.0196 16.8946 16.2071 16.7071C16.3946 16.5196 16.5 16.2652 16.5 16C16.5 15.7348 16.3946 15.4804 16.2071 15.2929C16.0196 15.1054 15.7652 15 15.5 15ZM15.5 11H9.5C9.23478 11 8.98043 11.1054 8.79289 11.2929C8.60536 11.4804 8.5 11.7348 8.5 12C8.5 12.2652 8.60536 12.5196 8.79289 12.7071C8.98043 12.8946 9.23478 13 9.5 13H15.5C15.7652 13 16.0196 12.8946 16.2071 12.7071C16.3946 12.5196 16.5 12.2652 16.5 12C16.5 11.7348 16.3946 11.4804 16.2071 11.2929C16.0196 11.1054 15.7652 11 15.5 11ZM14.5 2C15.0304 2 15.5391 2.21071 15.9142 2.58579C16.2893 2.96086 16.5 3.46957 16.5 4C16.5 4.53043 16.2893 5.03914 15.9142 5.41421C15.5391 5.78929 15.0304 6 14.5 6H10.5C9.96957 6 9.46086 5.78929 9.08579 5.41421C8.71071 5.03914 8.5 4.53043 8.5 4C8.5 3.46957 8.71071 2.96086 9.08579 2.58579C9.46086 2.21071 9.96957 2 10.5 2H14.5Z" fill="#F4EAFF"/>
</svg>
