<svg width="25" height="24" viewBox="0 0 25 24" fill="none" xmlns="http://www.w3.org/2000/svg">
<path d="M9.5 19V13C9.5 12.7348 9.39464 12.4804 9.20711 12.2929C9.01957 12.1054 8.76522 12 8.5 12H4.5C4.23478 12 3.98043 12.1054 3.79289 12.2929C3.60536 12.4804 3.5 12.7348 3.5 13V19C3.5 19.2652 3.60536 19.5196 3.79289 19.7071C3.98043 19.8946 4.23478 20 4.5 20M9.5 19C9.5 19.2652 9.39464 19.5196 9.20711 19.7071C9.01957 19.8946 8.76522 20 8.5 20H4.5M9.5 19C9.5 19.2652 9.60536 19.5196 9.79289 19.7071C9.98043 19.8946 10.2348 20 10.5 20H14.5C14.7652 20 15.0196 19.8946 15.2071 19.7071C15.3946 19.5196 15.5 19.2652 15.5 19M9.5 19V9C9.5 8.73478 9.60536 8.48043 9.79289 8.29289C9.98043 8.10536 10.2348 8 10.5 8H14.5C14.7652 8 15.0196 8.10536 15.2071 8.29289C15.3946 8.48043 15.5 8.73478 15.5 9V19M4.5 20H18.5M15.5 19C15.5 19.2652 15.6054 19.5196 15.7929 19.7071C15.9804 19.8946 16.2348 20 16.5 20H20.5C20.7652 20 21.0196 19.8946 21.2071 19.7071C21.3946 19.5196 21.5 19.2652 21.5 19V5C21.5 4.73478 21.3946 4.48043 21.2071 4.29289C21.0196 4.10536 20.7652 4 20.5 4H16.5C16.2348 4 15.9804 4.10536 15.7929 4.29289C15.6054 4.48043 15.5 4.73478 15.5 5V19Z" stroke="#CA9FFF" stroke-width="2" stroke-linecap="round" stroke-linejoin="round"/>
</svg>
