<svg width="25" height="24" viewBox="0 0 25 24" fill="none" xmlns="http://www.w3.org/2000/svg">
<path d="M10.5 14.5H14.5C15.6935 14.5 16.8377 14.9744 17.6816 15.8184C18.5256 16.6623 19 17.8065 19 19V20C19 20.3978 18.8419 20.7792 18.5605 21.0605C18.2792 21.3419 17.8978 21.5 17.5 21.5H7.5C7.15199 21.5 6.81669 21.3788 6.5498 21.1602L6.43945 21.0605C6.15815 20.7792 6 20.3978 6 20V19C6 17.8065 6.47445 16.6623 7.31836 15.8184C8.16227 14.9744 9.30653 14.5 10.5 14.5ZM12.5 2.5C13.2788 2.5 14.0423 2.70216 14.7168 3.08398L15 3.25879C15.74 3.75325 16.3167 4.45611 16.6572 5.27832C16.9977 6.10052 17.0867 7.00511 16.9131 7.87793C16.7394 8.7508 16.311 9.55233 15.6816 10.1816C15.0523 10.811 14.2508 11.2394 13.3779 11.4131C12.5051 11.5867 11.6005 11.4977 10.7783 11.1572C9.95611 10.8167 9.25325 10.24 8.75879 9.5C8.26649 8.76323 8.00231 7.89765 8 7.01172L8.00488 6.80469C8.05208 5.71845 8.49044 4.68866 9.23535 3.90332L9.3877 3.75C10.1729 2.99811 11.2021 2.55705 12.2832 2.50488L12.5 2.5Z" fill="#F4EAFF" stroke="#F4EAFF"/>
</svg>
