<svg width="41" height="40" viewBox="0 0 41 40" fill="none" xmlns="http://www.w3.org/2000/svg">
<path d="M20.2139 40C31.2596 40 40.2139 31.0457 40.2139 20C40.2139 8.9543 31.2596 0 20.2139 0C9.16817 0 0.213867 8.9543 0.213867 20C0.213867 31.0457 9.16817 40 20.2139 40Z" fill="url(#paint0_linear_304_4641)"/>
<path d="M31.2272 25.9878C31.2272 29.2878 26.3022 32.9628 20.2147 32.9628C14.1272 32.9628 9.20215 29.2878 9.20215 25.9878C9.20215 22.6878 14.1272 27.4378 20.2147 27.4378C26.3022 27.4378 31.2272 22.6878 31.2272 25.9878Z" fill="url(#paint1_linear_304_4641)"/>
<mask id="mask0_304_4641" style="mask-type:luminance" maskUnits="userSpaceOnUse" x="9" y="24" width="23" height="9">
<path d="M31.2272 25.9878C31.2272 29.2878 26.3022 32.9628 20.2147 32.9628C14.1272 32.9628 9.20215 29.2878 9.20215 25.9878C9.20215 22.6878 14.1272 27.4378 20.2147 27.4378C26.3022 27.4378 31.2272 22.6878 31.2272 25.9878Z" fill="white"/>
</mask>
<g mask="url(#mask0_304_4641)">
<path d="M20.2152 35.6377C22.5141 35.6377 24.3777 34.4345 24.3777 32.9502C24.3777 31.4659 22.5141 30.2627 20.2152 30.2627C17.9164 30.2627 16.0527 31.4659 16.0527 32.9502C16.0527 34.4345 17.9164 35.6377 20.2152 35.6377Z" fill="url(#paint2_linear_304_4641)"/>
</g>
<path d="M31.5164 23.1177C34.0151 22.2117 34.9456 18.4573 33.5949 14.732C32.2441 11.0067 29.1236 8.72114 26.6249 9.62713C24.1262 10.5331 23.1956 14.2875 24.5463 18.0129C25.8971 21.7382 29.0177 24.0237 31.5164 23.1177Z" fill="#FAFAFA"/>
<path d="M29.6386 12.7371L30.2761 13.1996L31.0636 13.2746C32.2386 13.3871 33.0011 14.5621 32.6386 15.6871L32.3886 16.4371L32.5511 17.2121C32.8011 18.3621 31.9261 19.4621 30.7386 19.4621H29.9511L29.2636 19.8621C28.2386 20.4621 26.9386 19.9621 26.5636 18.8371L26.3136 18.0871L25.7261 17.5621C24.8511 16.7746 24.9136 15.3746 25.8636 14.6871L26.5011 14.2246L26.8261 13.4996C27.3011 12.4246 28.6511 12.0496 29.6136 12.7496L29.6386 12.7371Z" fill="#1A063A"/>
<path d="M28.0762 14.7998C28.3178 14.7998 28.5137 14.6039 28.5137 14.3623C28.5137 14.1207 28.3178 13.9248 28.0762 13.9248C27.8346 13.9248 27.6387 14.1207 27.6387 14.3623C27.6387 14.6039 27.8346 14.7998 28.0762 14.7998Z" fill="#FAFAFA"/>
<path d="M27.1761 15.6998C27.2865 15.6998 27.3761 15.6103 27.3761 15.4998C27.3761 15.3893 27.2865 15.2998 27.1761 15.2998C27.0656 15.2998 26.9761 15.3893 26.9761 15.4998C26.9761 15.6103 27.0656 15.6998 27.1761 15.6998Z" fill="#FAFAFA"/>
<path d="M16.4172 17.938C17.7679 14.2126 16.8373 10.4582 14.3386 9.55222C11.8399 8.64623 8.71936 10.9317 7.3686 14.6571C6.01785 18.3824 6.94844 22.1368 9.44713 23.0428C11.9458 23.9488 15.0664 21.6633 16.4172 17.938Z" fill="#FAFAFA"/>
<path d="M11.3252 12.6629L10.6877 13.1254L9.90022 13.2004C8.72522 13.3129 7.96271 14.4879 8.32521 15.6129L8.57521 16.3629L8.41272 17.1379C8.16272 18.2879 9.03772 19.3879 10.2252 19.3879H11.0127L11.7002 19.7879C12.7252 20.3879 14.0252 19.8879 14.4002 18.7629L14.6502 18.0129L15.2377 17.4879C16.1127 16.7004 16.0502 15.3004 15.1002 14.6129L14.4627 14.1504L14.1377 13.4254C13.6627 12.3504 12.3127 11.9754 11.3502 12.6754L11.3252 12.6629Z" fill="#1A063A"/>
<path d="M11.4502 14.5498C11.6918 14.5498 11.8877 14.3539 11.8877 14.1123C11.8877 13.8707 11.6918 13.6748 11.4502 13.6748C11.2086 13.6748 11.0127 13.8707 11.0127 14.1123C11.0127 14.3539 11.2086 14.5498 11.4502 14.5498Z" fill="#FAFAFA"/>
<path d="M10.2508 14.5621C10.3612 14.5621 10.4508 14.4726 10.4508 14.3621C10.4508 14.2517 10.3612 14.1621 10.2508 14.1621C10.1403 14.1621 10.0508 14.2517 10.0508 14.3621C10.0508 14.4726 10.1403 14.5621 10.2508 14.5621Z" fill="#FAFAFA"/>
<path d="M8.71387 8.11208C9.41387 7.17458 13.2014 4.43708 16.1889 8.38708" stroke="#1A063A" stroke-width="2.5" stroke-miterlimit="10" stroke-linecap="round"/>
<path d="M31.8139 8.11208C31.1139 7.17458 27.3264 4.43708 24.3389 8.38708" stroke="#1A063A" stroke-width="2.5" stroke-miterlimit="10" stroke-linecap="round"/>
<path d="M34.5389 26.7867L34.7639 27.3867L35.3639 27.6117C35.5014 27.6617 35.5014 27.8492 35.3639 27.8992L34.7639 28.1242L34.5389 28.7242C34.4889 28.8617 34.3014 28.8617 34.2514 28.7242L34.0264 28.1242L33.4264 27.8992C33.2889 27.8492 33.2889 27.6617 33.4264 27.6117L34.0264 27.3867L34.2514 26.7867C34.3014 26.6492 34.4889 26.6492 34.5389 26.7867Z" fill="#FAFAFA"/>
<path d="M25.2259 2.81211L25.4509 3.41211L26.0509 3.63711C26.1884 3.68711 26.1884 3.87461 26.0509 3.92461L25.4509 4.14961L25.2259 4.74961C25.1759 4.88711 24.9884 4.88711 24.9384 4.74961L24.7134 4.14961L24.1134 3.92461C23.9759 3.87461 23.9759 3.68711 24.1134 3.63711L24.7134 3.41211L24.9384 2.81211C24.9884 2.67461 25.1759 2.67461 25.2259 2.81211Z" fill="#FAFAFA"/>
<path d="M4.31329 13.3619L4.40078 13.5994L4.63828 13.6869C4.77578 13.7369 4.77578 13.9244 4.63828 13.9744L4.40078 14.0619L4.31329 14.2994C4.26329 14.4369 4.07577 14.4369 4.02577 14.2994L3.93828 14.0619L3.70078 13.9744C3.56328 13.9244 3.56328 13.7369 3.70078 13.6869L3.93828 13.5994L4.02577 13.3619C4.07577 13.2244 4.26329 13.2244 4.31329 13.3619Z" fill="#FAFAFA"/>
<path d="M27.5256 3.3873L27.5881 3.5623L27.7631 3.6248C27.9006 3.6748 27.9006 3.8623 27.7631 3.9123L27.5881 3.9748L27.5256 4.1498C27.4756 4.2873 27.2881 4.2873 27.2381 4.1498L27.1756 3.9748L27.0006 3.9123C26.8631 3.8623 26.8631 3.6748 27.0006 3.6248L27.1756 3.5623L27.2381 3.3873C27.2881 3.2498 27.4756 3.2498 27.5256 3.3873Z" fill="#FAFAFA"/>
<path d="M5.46319 25.3619L5.55068 25.5994L5.78818 25.6869C5.92568 25.7369 5.92568 25.9244 5.78818 25.9744L5.55068 26.0619L5.46319 26.2994C5.41319 26.4369 5.22568 26.4369 5.17568 26.2994L5.08819 26.0619L4.85068 25.9744C4.71318 25.9244 4.71318 25.7369 4.85068 25.6869L5.08819 25.5994L5.17568 25.3619C5.22568 25.2244 5.41319 25.2244 5.46319 25.3619Z" fill="#FAFAFA"/>
<defs>
<linearGradient id="paint0_linear_304_4641" x1="8.56387" y1="8.35" x2="30.7389" y2="30.525" gradientUnits="userSpaceOnUse">
<stop stop-color="#CEFFFF"/>
<stop offset="0.67" stop-color="#79E4F9"/>
</linearGradient>
<linearGradient id="paint1_linear_304_4641" x1="20.2147" y1="24.8628" x2="20.2147" y2="33.0878" gradientUnits="userSpaceOnUse">
<stop stop-color="#6936F2"/>
<stop offset="0.71" stop-color="#200D3D"/>
</linearGradient>
<linearGradient id="paint2_linear_304_4641" x1="20.2152" y1="30.2752" x2="20.2152" y2="35.6502" gradientUnits="userSpaceOnUse">
<stop stop-color="#B066FF"/>
<stop offset="0.56" stop-color="#6936F2"/>
</linearGradient>
</defs>
</svg>
