<svg width="41" height="40" viewBox="0 0 41 40" fill="none" xmlns="http://www.w3.org/2000/svg">
<path d="M20.3569 40C31.4026 40 40.3569 31.0457 40.3569 20C40.3569 8.9543 31.4026 0 20.3569 0C9.31124 0 0.356934 8.9543 0.356934 20C0.356934 31.0457 9.31124 40 20.3569 40Z" fill="url(#paint0_linear_304_4493)"/>
<path d="M8.95703 30.6498C8.95703 27.3498 13.882 23.6748 19.9695 23.6748C26.057 23.6748 30.982 27.3498 30.982 30.6498C30.982 33.9498 26.057 29.1998 19.9695 29.1998C13.882 29.1998 8.95703 33.9498 8.95703 30.6498Z" fill="url(#paint1_linear_304_4493)"/>
<mask id="mask0_304_4493" style="mask-type:luminance" maskUnits="userSpaceOnUse" x="8" y="23" width="23" height="9">
<path d="M8.95703 30.6498C8.95703 27.3498 13.882 23.6748 19.9695 23.6748C26.057 23.6748 30.982 27.3498 30.982 30.6498C30.982 33.9498 26.057 29.1998 19.9695 29.1998C13.882 29.1998 8.95703 33.9498 8.95703 30.6498Z" fill="white"/>
</mask>
<g mask="url(#mask0_304_4493)">
<path d="M19.9701 31.8252C22.269 31.8252 24.1326 30.622 24.1326 29.1377C24.1326 27.6534 22.269 26.4502 19.9701 26.4502C17.6712 26.4502 15.8076 27.6534 15.8076 29.1377C15.8076 30.622 17.6712 31.8252 19.9701 31.8252Z" fill="url(#paint2_linear_304_4493)"/>
</g>
<path d="M31.6687 23.1138C34.1674 22.2078 35.098 18.4534 33.7472 14.7281C32.3965 11.0027 29.2759 8.71723 26.7772 9.62323C24.2785 10.5292 23.3479 14.2836 24.6987 18.009C26.0494 21.7343 29.17 24.0198 31.6687 23.1138Z" fill="#FAFAFA"/>
<path d="M29.7826 12.7371L30.4201 13.1996L31.2076 13.2746C32.3826 13.3871 33.1451 14.5621 32.7826 15.6871L32.5326 16.4371L32.6951 17.2121C32.9451 18.3621 32.0701 19.4621 30.8826 19.4621H30.0951L29.4076 19.8621C28.3826 20.4621 27.0826 19.9621 26.7076 18.8371L26.4576 18.0871L25.8701 17.5621C24.9951 16.7746 25.0576 15.3746 26.0076 14.6871L26.6451 14.2246L26.9701 13.4996C27.4451 12.4246 28.7951 12.0496 29.7576 12.7496L29.7826 12.7371Z" fill="#1A063A"/>
<path d="M28.2207 14.7998C28.4623 14.7998 28.6582 14.6039 28.6582 14.3623C28.6582 14.1207 28.4623 13.9248 28.2207 13.9248C27.9791 13.9248 27.7832 14.1207 27.7832 14.3623C27.7832 14.6039 27.9791 14.7998 28.2207 14.7998Z" fill="#FAFAFA"/>
<path d="M27.3201 15.6998C27.4306 15.6998 27.5201 15.6103 27.5201 15.4998C27.5201 15.3893 27.4306 15.2998 27.3201 15.2998C27.2097 15.2998 27.1201 15.3893 27.1201 15.4998C27.1201 15.6103 27.2097 15.6998 27.3201 15.6998Z" fill="#FAFAFA"/>
<path d="M25.0322 7.4375C25.0322 7.4375 28.5572 10.6 32.2947 9.25" stroke="#1A063A" stroke-width="2.5" stroke-miterlimit="10" stroke-linecap="round"/>
<path d="M16.5646 17.9292C17.9154 14.2038 16.9848 10.4494 14.4861 9.54342C11.9874 8.63743 8.86682 10.9229 7.51607 14.6483C6.16531 18.3736 7.0959 22.128 9.59459 23.034C12.0933 23.94 15.2139 21.6545 16.5646 17.9292Z" fill="#FAFAFA"/>
<path d="M11.4697 12.6619L10.8322 13.1244L10.0447 13.1994C8.86974 13.3119 8.10724 14.4869 8.46974 15.6119L8.71974 16.3619L8.55724 17.1369C8.30724 18.2869 9.18225 19.3869 10.3697 19.3869H11.1572L11.8447 19.7869C12.8697 20.3869 14.1697 19.8869 14.5447 18.7619L14.7947 18.0119L15.3822 17.4869C16.2572 16.6994 16.1947 15.2994 15.2447 14.6119L14.6072 14.1494L14.2822 13.4244C13.8072 12.3494 12.4572 11.9744 11.4947 12.6744L11.4697 12.6619Z" fill="#1A063A"/>
<path d="M11.5947 14.5498C11.8364 14.5498 12.0322 14.3539 12.0322 14.1123C12.0322 13.8707 11.8364 13.6748 11.5947 13.6748C11.3531 13.6748 11.1572 13.8707 11.1572 14.1123C11.1572 14.3539 11.3531 14.5498 11.5947 14.5498Z" fill="#FAFAFA"/>
<path d="M10.3953 14.5621C10.5058 14.5621 10.5953 14.4726 10.5953 14.3621C10.5953 14.2517 10.5058 14.1621 10.3953 14.1621C10.2849 14.1621 10.1953 14.2517 10.1953 14.3621C10.1953 14.4726 10.2849 14.5621 10.3953 14.5621Z" fill="#FAFAFA"/>
<path d="M16.2195 7.34961C16.2195 7.34961 12.6945 10.5121 8.95703 9.16211" stroke="#1A063A" stroke-width="2.5" stroke-miterlimit="10" stroke-linecap="round"/>
<path d="M34.6814 26.7877L34.9064 27.3877L35.5064 27.6127C35.6439 27.6627 35.6439 27.8502 35.5064 27.9002L34.9064 28.1252L34.6814 28.7252C34.6314 28.8627 34.4439 28.8627 34.3939 28.7252L34.1689 28.1252L33.5689 27.9002C33.4314 27.8502 33.4314 27.6627 33.5689 27.6127L34.1689 27.3877L34.3939 26.7877C34.4439 26.6502 34.6314 26.6502 34.6814 26.7877Z" fill="#FAFAFA"/>
<path d="M28.9441 3.4625L29.1691 4.0625L29.7691 4.2875C29.9066 4.3375 29.9066 4.525 29.7691 4.575L29.1691 4.8L28.9441 5.4C28.8941 5.5375 28.7066 5.5375 28.6566 5.4L28.4316 4.8L27.8316 4.575C27.6941 4.525 27.6941 4.3375 27.8316 4.2875L28.4316 4.0625L28.6566 3.4625C28.7066 3.325 28.8941 3.325 28.9441 3.4625Z" fill="#FAFAFA"/>
<path d="M4.45635 13.3629L4.54385 13.6004L4.78135 13.6879C4.91885 13.7379 4.91885 13.9254 4.78135 13.9754L4.54385 14.0629L4.45635 14.3004C4.40635 14.4379 4.21885 14.4379 4.16885 14.3004L4.08135 14.0629L3.84385 13.9754C3.70635 13.9254 3.70635 13.7379 3.84385 13.6879L4.08135 13.6004L4.16885 13.3629C4.21885 13.2254 4.40635 13.2254 4.45635 13.3629Z" fill="#FAFAFA"/>
<path d="M27.2189 5.1002L27.2814 5.2752L27.4564 5.3377C27.5939 5.3877 27.5939 5.5752 27.4564 5.6252L27.2814 5.6877L27.2189 5.8627C27.1689 6.0002 26.9814 6.0002 26.9314 5.8627L26.8689 5.6877L26.6939 5.6252C26.5564 5.5752 26.5564 5.3877 26.6939 5.3377L26.8689 5.2752L26.9314 5.1002C26.9814 4.9627 27.1689 4.9627 27.2189 5.1002Z" fill="#FAFAFA"/>
<path d="M5.60625 25.3629L5.69375 25.6004L5.93125 25.6879C6.06875 25.7379 6.06875 25.9254 5.93125 25.9754L5.69375 26.0629L5.60625 26.3004C5.55625 26.4379 5.36875 26.4379 5.31875 26.3004L5.23125 26.0629L4.99375 25.9754C4.85625 25.9254 4.85625 25.7379 4.99375 25.6879L5.23125 25.6004L5.31875 25.3629C5.36875 25.2254 5.55625 25.2254 5.60625 25.3629Z" fill="#FAFAFA"/>
<defs>
<linearGradient id="paint0_linear_304_4493" x1="8.70693" y1="8.35" x2="30.8819" y2="30.525" gradientUnits="userSpaceOnUse">
<stop stop-color="#FFB9D0"/>
<stop offset="0.67" stop-color="#EF54A9"/>
</linearGradient>
<linearGradient id="paint1_linear_304_4493" x1="19.9695" y1="31.7748" x2="19.9695" y2="23.5498" gradientUnits="userSpaceOnUse">
<stop stop-color="#6936F2"/>
<stop offset="0.71" stop-color="#200D3D"/>
</linearGradient>
<linearGradient id="paint2_linear_304_4493" x1="19.9701" y1="26.4502" x2="19.9701" y2="31.8252" gradientUnits="userSpaceOnUse">
<stop stop-color="#B066FF"/>
<stop offset="0.56" stop-color="#6936F2"/>
</linearGradient>
</defs>
</svg>
